<svg xmlns:xlink="http://www.w3.org/1999/xlink" xmlns="http://www.w3.org/2000/svg" fill="none" viewBox="0 0 247 56" width="269"  height="61" >
  <rect width="247" height="56" fill="#F4DAFF" rx="28"/>
  <path fill="#000" d="M33.073 28.87c0 3.305-2.213 5.446-5.627 5.446-3.695 0-6.026-2.638-6.026-6.838 0-4.146 2.358-6.83 6.007-6.83 2.963 0 5.113 1.663 5.556 4.292h-2.032c-.506-1.617-1.744-2.494-3.524-2.494-2.411 0-3.938 1.943-3.938 5.023 0 3.125 1.536 5.05 3.984 5.05 2.132 0 3.595-1.346 3.613-3.343v-.289h-3.36v-1.635h5.347v1.617Zm8.016 2.501h1.87c-.425 1.735-2.015 2.819-4.264 2.819-2.819 0-4.544-1.942-4.544-5.077 0-3.116 1.761-5.113 4.535-5.113 2.737 0 4.39 1.87 4.39 4.941v.669h-6.947v.09c.064 1.78 1.066 2.9 2.62 2.9 1.174 0 1.978-.434 2.34-1.229Zm-2.412-5.79c-1.437 0-2.44 1.048-2.548 2.629h4.968c-.045-1.59-.984-2.629-2.42-2.629Zm6.416-3.866h1.942v2.502h2.132v1.554h-2.132v5.176c0 1.057.425 1.517 1.391 1.517.298 0 .47-.018.74-.045v1.545c-.315.054-.677.1-1.056.1-2.159 0-3.017-.76-3.017-2.648v-5.645H43.53v-1.554h1.563v-2.502ZM57.636 34V23.052h-.153l-3.27 2.34v-1.988l3.432-2.439h2.015V34h-2.024Zm9.425.316c-3.044 0-4.824-2.511-4.824-6.847 0-4.3 1.798-6.82 4.824-6.82 3.008 0 4.805 2.52 4.805 6.847 0 4.318-1.77 6.82-4.805 6.82Zm0-1.68c1.77 0 2.764-1.798 2.764-5.167 0-3.333-1.012-5.13-2.764-5.13-1.753 0-2.783 1.815-2.783 5.13 0 3.36 1.012 5.167 2.783 5.167Zm8.476-5.709c-1.834 0-2.927-1.156-2.927-3.107 0-1.916 1.12-3.099 2.927-3.099 1.815 0 2.926 1.183 2.926 3.099 0 1.95-1.093 3.107-2.926 3.107ZM76.395 34h-1.698l8.888-13.035h1.69L76.395 34Zm-.858-8.392c.822 0 1.282-.66 1.282-1.78 0-1.11-.47-1.77-1.282-1.77-.813 0-1.292.66-1.292 1.77 0 1.13.47 1.78 1.292 1.78Zm8.906 8.527c-1.824 0-2.926-1.165-2.926-3.107 0-1.915 1.12-3.098 2.926-3.098 1.816 0 2.927 1.174 2.927 3.098 0 1.951-1.093 3.108-2.927 3.108Zm0-1.327c.822 0 1.292-.65 1.292-1.77 0-1.112-.47-1.78-1.292-1.78-.813 0-1.282.668-1.282 1.78 0 1.128.47 1.77 1.282 1.77Zm12.101 1.382c-2.881 0-4.643-1.924-4.643-5.095 0-3.162 1.77-5.095 4.643-5.095 2.864 0 4.634 1.924 4.634 5.095 0 3.17-1.761 5.095-4.634 5.095Zm0-1.653c1.68 0 2.638-1.265 2.638-3.442 0-2.186-.957-3.45-2.638-3.45-1.689 0-2.637 1.264-2.637 3.45s.948 3.442 2.637 3.442Zm6.67 1.463v-8.23h-1.617v-1.553h1.617V23.16c0-1.951.993-2.909 3.035-2.909.442 0 .822.037 1.156.09v1.464a5.36 5.36 0 0 0-.75-.045c-1.084 0-1.526.497-1.526 1.49v.967h2.195v1.554h-2.168V34h-1.942Zm6.045 0v-8.23h-1.617v-1.553h1.617V23.16c0-1.951.994-2.909 3.036-2.909.442 0 .822.037 1.156.09v1.464a5.36 5.36 0 0 0-.75-.045c-1.084 0-1.527.497-1.527 1.49v.967h2.196v1.554h-2.168V34h-1.943Zm9.373 0v-9.81h1.87v1.563h.145c.433-1.102 1.427-1.753 2.737-1.753 1.346 0 2.276.696 2.71 1.753h.153c.497-1.057 1.626-1.753 2.99-1.753 1.988 0 3.144 1.193 3.144 3.234V34h-1.942v-6.296c0-1.355-.633-2.015-1.906-2.015-1.256 0-2.078.922-2.078 2.105V34h-1.906v-6.495c0-1.12-.741-1.816-1.897-1.816-1.183 0-2.078 1.003-2.078 2.286V34h-1.942Zm16.127 3.56c-.162 0-.623-.019-.804-.046v-1.59c.154.027.452.036.633.036.921 0 1.445-.388 1.779-1.427l.145-.506-3.559-9.837h2.113l2.467 7.859h.153l2.457-7.86h2.06l-3.668 10.263c-.84 2.357-1.77 3.107-3.776 3.107ZM147.944 34v-8.23h-1.617v-1.553h1.617V23.16c0-1.951.994-2.909 3.035-2.909.443 0 .822.037 1.157.09v1.464a5.36 5.36 0 0 0-.75-.045c-1.084 0-1.527.497-1.527 1.49v.967h2.195v1.554h-2.168V34h-1.942Zm6.317-11.563a1.228 1.228 0 0 1-1.228-1.219 1.23 1.23 0 0 1 2.457 0c0 .668-.551 1.22-1.229 1.22ZM153.295 34v-9.81h1.933V34h-1.933Zm3.787 0v-9.81h1.87v1.49h.145c.28-.966 1.373-1.662 2.655-1.662.289 0 .66.027.868.072v1.825c-.163-.045-.741-.108-1.084-.108-1.473 0-2.512.948-2.512 2.33V34h-1.942Zm5.983-7.064c0-1.707 1.599-2.936 3.821-2.936 2.213 0 3.658 1.03 3.848 2.728h-1.861c-.18-.732-.885-1.21-1.987-1.21-1.084 0-1.906.533-1.906 1.328 0 .605.497.984 1.563 1.237l1.635.38c1.87.433 2.746 1.237 2.746 2.664 0 1.825-1.726 3.063-4.074 3.063-2.34 0-3.866-1.057-4.038-2.764h1.942c.244.767.967 1.246 2.141 1.246 1.21 0 2.069-.56 2.069-1.364 0-.614-.461-1.012-1.446-1.247l-1.716-.406c-1.87-.434-2.737-1.265-2.737-2.719Zm9.813-5.221h1.942v2.502h2.132v1.554h-2.132v5.176c0 1.057.424 1.517 1.391 1.517.298 0 .47-.018.741-.045v1.545c-.317.054-.678.1-1.057.1-2.159 0-3.017-.76-3.017-2.648v-5.645h-1.563v-1.554h1.563v-2.502Zm13.573 12.475c-2.882 0-4.643-1.924-4.643-5.095 0-3.162 1.77-5.095 4.643-5.095 2.863 0 4.634 1.924 4.634 5.095 0 3.17-1.761 5.095-4.634 5.095Zm0-1.653c1.68 0 2.638-1.265 2.638-3.442 0-2.186-.958-3.45-2.638-3.45-1.689 0-2.638 1.264-2.638 3.45s.949 3.442 2.638 3.442ZM192.425 34v-9.81h1.869v1.49h.145c.28-.966 1.373-1.662 2.656-1.662.289 0 .659.027.867.072v1.825c-.163-.045-.741-.108-1.084-.108-1.472 0-2.511.948-2.511 2.33V34h-1.942Zm9.749.163c-2.502 0-4.083-1.97-4.083-5.077 0-3.09 1.599-5.068 4.083-5.068 1.346 0 2.484.65 3.017 1.726h.145v-5.402h1.942V34h-1.861v-1.554h-.153c-.588 1.075-1.735 1.717-3.09 1.717Zm.551-8.483c-1.635 0-2.628 1.292-2.628 3.415 0 2.132.984 3.406 2.628 3.406 1.635 0 2.647-1.292 2.647-3.406 0-2.096-1.021-3.415-2.647-3.415Zm12.92 5.691h1.87c-.424 1.735-2.014 2.819-4.263 2.819-2.819 0-4.544-1.942-4.544-5.077 0-3.116 1.761-5.113 4.535-5.113 2.737 0 4.39 1.87 4.39 4.941v.669h-6.947v.09c.063 1.78 1.066 2.9 2.62 2.9 1.174 0 1.978-.434 2.339-1.229Zm-2.411-5.79c-1.437 0-2.439 1.048-2.548 2.629h4.968c-.045-1.59-.984-2.629-2.42-2.629ZM218.963 34v-9.81h1.87v1.49h.145c.28-.966 1.373-1.662 2.655-1.662.29 0 .66.027.868.072v1.825c-.163-.045-.741-.108-1.084-.108-1.473 0-2.512.948-2.512 2.33V34h-1.942Z"/>
</svg>