<svg xmlns:xlink="http://www.w3.org/1999/xlink" xmlns="http://www.w3.org/2000/svg" fill="none" viewBox="0 0 333 56" width="363"  height="61" >
  <rect width="333" height="56" fill="#F4F4B0" rx="28"/>
  <path fill="#000" d="M27.263 20.965v8.383c0 1.86 1.184 3.17 3.252 3.17 2.078 0 3.261-1.31 3.261-3.17v-8.383H35.8v8.546c0 2.818-2.006 4.805-5.285 4.805-3.26 0-5.275-1.987-5.275-4.806v-8.545h2.023Zm10.346 5.971c0-1.707 1.599-2.936 3.821-2.936 2.213 0 3.659 1.03 3.848 2.728h-1.86c-.181-.732-.886-1.21-1.988-1.21-1.084 0-1.906.533-1.906 1.328 0 .605.497.984 1.563 1.237l1.635.38c1.87.433 2.746 1.237 2.746 2.664 0 1.825-1.725 3.063-4.074 3.063-2.34 0-3.866-1.057-4.038-2.764h1.942c.244.767.967 1.246 2.141 1.246 1.21 0 2.069-.56 2.069-1.364 0-.614-.46-1.012-1.446-1.247l-1.716-.406c-1.87-.434-2.737-1.265-2.737-2.719Zm15.648 4.435h1.87c-.424 1.735-2.014 2.819-4.264 2.819-2.818 0-4.543-1.942-4.543-5.077 0-3.116 1.761-5.113 4.535-5.113 2.737 0 4.39 1.87 4.39 4.941v.669h-6.947v.09c.063 1.78 1.066 2.9 2.62 2.9 1.174 0 1.978-.434 2.34-1.229Zm-2.412-5.79c-1.436 0-2.438 1.048-2.547 2.629h4.968c-.045-1.59-.984-2.629-2.42-2.629Zm18.118 1.762h-1.888c-.226-.958-1.021-1.69-2.322-1.69-1.626 0-2.62 1.283-2.62 3.406 0 2.168 1.003 3.478 2.62 3.478 1.228 0 2.069-.578 2.322-1.644h1.888c-.253 1.933-1.771 3.297-4.201 3.297-2.864 0-4.616-1.951-4.616-5.131 0-3.117 1.743-5.059 4.607-5.059 2.466 0 3.957 1.436 4.21 3.343Zm5.377 6.847c-2.882 0-4.643-1.924-4.643-5.095 0-3.162 1.77-5.095 4.643-5.095 2.864 0 4.634 1.924 4.634 5.095 0 3.17-1.761 5.095-4.634 5.095Zm0-1.653c1.68 0 2.638-1.265 2.638-3.442 0-2.186-.958-3.45-2.638-3.45-1.69 0-2.638 1.264-2.638 3.45s.949 3.442 2.638 3.442Zm9.569 1.626c-2.502 0-4.083-1.97-4.083-5.077 0-3.09 1.599-5.068 4.083-5.068 1.346 0 2.484.65 3.017 1.726h.144v-5.402h1.943V34h-1.861v-1.554h-.154c-.587 1.075-1.734 1.717-3.09 1.717Zm.55-8.483c-1.634 0-2.628 1.292-2.628 3.415 0 2.132.985 3.406 2.629 3.406 1.635 0 2.647-1.292 2.647-3.406 0-2.096-1.021-3.415-2.647-3.415Zm12.921 5.691h1.87c-.425 1.735-2.014 2.819-4.264 2.819-2.818 0-4.544-1.942-4.544-5.077 0-3.116 1.762-5.113 4.535-5.113 2.737 0 4.39 1.87 4.39 4.941v.669h-6.946v.09c.063 1.78 1.066 2.9 2.62 2.9 1.174 0 1.978-.434 2.34-1.229Zm-2.412-5.79c-1.436 0-2.439 1.048-2.547 2.629h4.968c-.045-1.59-.984-2.629-2.42-2.629Zm17.404-1.328L109.58 34h-1.915l-3.514-13.035h2.105L108.65 31.1h.126l2.719-10.135h1.879l2.737 10.135h.127l2.385-10.135h2.104L117.204 34h-1.906l-2.8-9.747h-.126Zm18.078 8.004V34h-8.275V20.965h8.275v1.744h-6.251v3.811h5.917v1.68h-5.917v4.057h6.251Zm10.056-.018V34h-8.129V20.965h2.023v11.274h6.106Zm6.426 2.077c-3.623 0-5.881-2.62-5.881-6.829 0-4.218 2.249-6.838 5.872-6.838 2.872 0 5.095 1.834 5.42 4.444h-2.015c-.379-1.617-1.689-2.646-3.405-2.646-2.34 0-3.803 1.942-3.803 5.04s1.463 5.032 3.812 5.032c1.725 0 3.035-.93 3.396-2.412h2.015c-.362 2.538-2.502 4.21-5.411 4.21Zm12.631-13.667c3.749 0 6.079 2.638 6.079 6.829 0 4.182-2.312 6.838-6.079 6.838-3.794 0-6.088-2.647-6.088-6.838 0-4.2 2.348-6.83 6.088-6.83Zm0 1.788c-2.466 0-4.02 1.952-4.02 5.041 0 3.062 1.509 5.05 4.02 5.05 2.475 0 4.011-1.988 4.011-5.05 0-3.09-1.545-5.04-4.011-5.04ZM180.577 34h-1.879v-9.548h-.126l-3.821 9.313h-1.536l-3.821-9.313h-.127V34h-1.879V20.965h2.367l4.146 10.199h.154l4.155-10.199h2.367V34Zm10.544-1.743V34h-8.274V20.965h8.274v1.744h-6.251v3.811h5.917v1.68h-5.917v4.057h6.251ZM195.948 34V23.052h-.154l-3.27 2.34v-1.988l3.433-2.439h2.014V34h-2.023Zm9.424.316c-3.044 0-4.824-2.511-4.824-6.847 0-4.3 1.798-6.82 4.824-6.82 3.008 0 4.806 2.52 4.806 6.847 0 4.318-1.771 6.82-4.806 6.82Zm0-1.68c1.771 0 2.764-1.798 2.764-5.167 0-3.333-1.011-5.13-2.764-5.13-1.752 0-2.782 1.815-2.782 5.13 0 3.36 1.012 5.167 2.782 5.167Zm13.185 1.527c-1.897 0-3.279-1.139-3.279-2.927 0-1.762 1.319-2.782 3.659-2.927l2.664-.163v-.858c0-1.075-.686-1.68-2.014-1.68-1.084 0-1.834.407-2.051 1.12h-1.879c.199-1.653 1.789-2.728 4.02-2.728 2.466 0 3.857 1.229 3.857 3.288V34h-1.869v-1.391h-.154c-.587.993-1.662 1.554-2.954 1.554Zm.497-1.563c1.463 0 2.547-.958 2.547-2.222v-.85l-2.403.163c-1.355.09-1.969.57-1.969 1.463 0 .913.768 1.446 1.825 1.446Zm6.931-10.885h1.942v2.502h2.132v1.554h-2.132v5.176c0 1.057.425 1.517 1.391 1.517.298 0 .47-.018.741-.045v1.545c-.316.054-.677.1-1.057.1-2.159 0-3.017-.76-3.017-2.648v-5.645h-1.563v-1.554h1.563v-2.502Zm17.747 5.628h-1.888c-.226-.958-1.021-1.69-2.322-1.69-1.626 0-2.619 1.283-2.619 3.406 0 2.168 1.002 3.478 2.619 3.478 1.229 0 2.069-.578 2.322-1.644h1.888c-.253 1.933-1.771 3.297-4.201 3.297-2.863 0-4.616-1.951-4.616-5.131 0-3.117 1.744-5.059 4.607-5.059 2.466 0 3.957 1.436 4.21 3.343ZM245.044 34V20.342h1.924v5.41h.154c.479-1.092 1.518-1.743 2.999-1.743 2.096 0 3.387 1.328 3.387 3.65V34h-1.942v-5.88c0-1.618-.731-2.422-2.104-2.422-1.59 0-2.476 1.021-2.476 2.557V34h-1.942Zm16.651-2.629h1.87c-.424 1.735-2.014 2.819-4.264 2.819-2.818 0-4.543-1.942-4.543-5.077 0-3.116 1.761-5.113 4.534-5.113 2.737 0 4.391 1.87 4.391 4.941v.669h-6.947v.09c.063 1.78 1.066 2.9 2.62 2.9 1.174 0 1.978-.434 2.339-1.229Zm-2.412-5.79c-1.436 0-2.439 1.048-2.547 2.629h4.968c-.045-1.59-.984-2.629-2.421-2.629Zm14.059 1.762h-1.888c-.226-.958-1.021-1.69-2.322-1.69-1.626 0-2.619 1.283-2.619 3.406 0 2.168 1.002 3.478 2.619 3.478 1.229 0 2.069-.578 2.322-1.644h1.888c-.253 1.933-1.771 3.297-4.201 3.297-2.863 0-4.616-1.951-4.616-5.131 0-3.117 1.744-5.059 4.607-5.059 2.466 0 3.957 1.436 4.21 3.343Zm3.408.984 3.902-4.137h2.295l-4.047 4.2 4.318 5.61h-2.385l-3.378-4.39-.859.822V34h-1.942V20.342h1.942v7.985h.154Zm10.906 5.863c-2.882 0-4.643-1.924-4.643-5.095 0-3.162 1.77-5.095 4.643-5.095 2.863 0 4.634 1.924 4.634 5.095 0 3.17-1.762 5.095-4.634 5.095Zm0-1.653c1.68 0 2.638-1.265 2.638-3.442 0-2.186-.958-3.45-2.638-3.45-1.689 0-2.638 1.264-2.638 3.45s.949 3.442 2.638 3.442Zm14.266-8.347V34h-1.87v-1.554h-.153c-.479 1.111-1.482 1.744-2.972 1.744-2.177 0-3.388-1.328-3.388-3.632V24.19h1.942v5.89c0 1.626.642 2.402 2.069 2.402 1.572 0 2.43-.957 2.43-2.538V24.19h1.942Zm2.505-2.475h1.942v2.502h2.132v1.554h-2.132v5.176c0 1.057.425 1.517 1.391 1.517.298 0 .47-.018.741-.045v1.545c-.316.054-.678.1-1.057.1-2.159 0-3.017-.76-3.017-2.648v-5.645h-1.563v-1.554h1.563v-2.502Z"/>
</svg>