<svg xmlns:xlink="http://www.w3.org/1999/xlink" xmlns="http://www.w3.org/2000/svg" width="56" height="56" viewBox="0 0 56 56" fill="none">
<mask id="mask0_1595_11787" style="mask-type:alpha" maskUnits="userSpaceOnUse" x="0" y="0" width="56" height="56">
<circle cx="28" cy="28" r="28" fill="#D9D9D9"/>
</mask>
<g mask="url(#mask0_1595_11787)">
<circle cx="28" cy="28" r="28" fill="#F4F3B0"/>
</g>
<path d="M32.5713 13L32.5713 18" stroke="black" stroke-width="2"/>
<path d="M35.6419 11C35.6419 12.6402 34.2835 14 32.5705 14C30.8574 14 29.499 12.6402 29.499 11C29.499 9.35976 30.8574 8 32.5705 8C34.2835 8 35.6419 9.35976 35.6419 11Z" fill="black" stroke="black" stroke-width="2"/>
<path d="M22.647 41.675L22.6417 40.6803H21.647H21.5634C15.274 40.6803 10.1602 35.5851 10.1602 29.3401C10.1602 23.0952 15.274 18 21.5634 18H35.4355C41.7248 18 46.8387 23.0952 46.8387 29.3401C46.8387 35.5851 41.7248 40.6803 35.4355 40.6803H29.8545H29.513L29.2429 40.8891L22.6697 45.9711L22.647 41.675Z" fill="black" stroke="black" stroke-width="2"/>
<path d="M26.4633 29.0889C26.4633 26.4222 25.6803 25 23.9187 25C22.157 25 21.374 26.4222 21.374 29.0889C21.374 31.5778 22.157 33 23.9187 33C25.6803 33 26.4633 31.5778 26.4633 29.0889Z" fill="#F4F3B0"/>
<path d="M35.6244 29.0889C35.6244 26.4222 34.8415 25 33.0798 25C31.3181 25 30.5352 26.4222 30.5352 29.0889C30.5352 31.5778 31.3181 33 33.0798 33C34.8415 33 35.6244 31.5778 35.6244 29.0889Z" fill="#F4F3B0"/>
</svg>