<svg xmlns="http://www.w3.org/2000/svg" xmlns:xlink="http://www.w3.org/1999/xlink" fill="none" height="1135" viewBox="0 0 325 1135" width="325"><clipPath id="a"><path d="m0 34.1601c0-18.8661 15.294-34.1601 34.16-34.1601h255.685c18.866 0 34.16 15.294 34.16 34.16v1099.84h-324.005z"/></clipPath><g clip-path="url(#a)"><path d="m-.00000354 1053 .00000354 81h81v-81z" fill="#d2b6de"/><path d="m-.00000354 891.001.00000354 81h81v-81z" fill="#d2b6de"/><path d="m-.00000354 729.001.00000354 81h81v-81z" fill="#d2b6de"/><path d="m81.0019 810.003.0001 81h81v-81z" fill="#d2b6de"/><path d="m81.0019 972 .0001 81h81v-81z" fill="#d2b6de"/><path d="m161.996 1053v81h81v-81z" fill="#d2b6de"/><path d="m161.996 891.001v81h81v-81z" fill="#d2b6de"/><path d="m161.996 728.999v81h81v-81z" fill="#d2b6de"/><path d="m243.004 810.003v81h81v-81z" fill="#d2b6de"/><path d="m243.002 972v81h81v-81z" fill="#d2b6de"/><g fill="#e1e090"><path d="m-.00000354 972.006.00000354 81.004h81v-81.004z"/><path d="m-.00000354 810.003.00000354 81h81v-81z"/><path d="m81.0019 728.999.0001 81h81v-81z"/><path d="m81.0019 891.001.0001 81h81v-81z"/><path d="m80.9961 1053v81h80.9999v-81z"/><path d="m161.996 972.006v81.004h81v-81.004z"/><path d="m161.996 810.003v81h81v-81z"/><path d="m243.004 728.999v81h81v-81z"/><path d="m243.002 891.001v81h81v-81z"/><path d="m243.004 1053v81h81v-81z"/><path d="m-.00000354 648.003.00000354 81h81v-81z"/><path d="m-.00000354 486 .00000354 81h81v-81z"/><path d="m81.0019 405.001.0001 81h81v-81z"/><path d="m81.0019 567.001.0001 81h81v-81z"/><path d="m161.996 648.003v81h81v-81z"/><path d="m161.996 486v81h81v-81z"/><path d="m243.004 405.001v81h81v-81z"/><path d="m243.002 567.001v81h81v-81z"/></g><path d="m-.00000354 567.001.00000354 81h81v-81z" fill="#d2b6de"/><path d="m-.00000354 405.001.00000354 81h81v-81z" fill="#d2b6de"/><path d="m81.0019 486 .0001 81h81v-81z" fill="#d2b6de"/><path d="m81.0019 648.003.0001 81h81v-81z" fill="#d2b6de"/><path d="m161.996 567.001v81h81v-81z" fill="#d2b6de"/><path d="m161.996 405.001v81h81v-81z" fill="#d2b6de"/><path d="m243.004 486v81h81v-81z" fill="#d2b6de"/><path d="m243.002 648.003v81h81v-81z" fill="#d2b6de"/><path d="m-.00000354 243.001.00000354 81h81v-81z" fill="#d2b6de"/><path d="m-.00000354 81.0015.00000354 80.9995h81v-80.9995z" fill="#d2b6de"/><path d="m81.0019 161.997.0001 81h81v-81z" fill="#d2b6de"/><path d="m81.0019 324 .0001 81h81v-81z" fill="#d2b6de"/><path d="m161.996 242.999v81h81v-81z" fill="#d2b6de"/><path d="m161.996 81.0015v80.9995h81v-80.9995z" fill="#d2b6de"/><path d="m243.004 161.997v81h81v-81z" fill="#d2b6de"/><path d="m243.002 324v81h81v-81z" fill="#d2b6de"/><path d="m-.00000354 324 .00000354 81h81v-81z" fill="#e1e090"/><path d="m-.00000354 161.997.00000354 81h81v-81z" fill="#e1e090"/><path d="m81.0019 81.0015.0001 80.9995h81v-80.9995z" fill="#e1e090"/><path d="m81.0019 242.999.0001 81h81v-81z" fill="#e1e090"/><path d="m161.996 324v81h81v-81z" fill="#e1e090"/><path d="m161.996 161.997v81h81v-81z" fill="#e1e090"/><path d="m243.004 81.0015v80.9995h81v-80.9995z" fill="#e1e090"/><path d="m243.002 242.999v81h81v-81z" fill="#e1e090"/><path d="m-.00000354.00588989.00000354 81.00001011h81v-81.00001365z" fill="#e1e090"/><path d="m161.996.00003052v80.99996948h81v-80.99997302z" fill="#e1e090"/><path d="m81.0019.00003052.0001 80.99996948h81v-80.99997302z" fill="#d2b6de"/><path d="m243.002.00003052v80.99996948h81v-80.99997302z" fill="#d2b6de"/></g></svg>