<svg xmlns="http://www.w3.org/2000/svg" width="64" height="56" fill="none" viewBox="0 0 64 56" aria-hidden="true" class="css-1eiqq1"><g fill="currentColor"><path d="M29.866 0v24.286H14.79V26h.143c8.246 0 14.93 6.715 14.93 15 0 8.283-6.684 14.999-14.93 14.999C6.685 56 0 49.284 0 41q0-.215.006-.428H0V17.143C0 7.675 7.64 0 17.064 0zM64 0v24.286H48.923V26h.142c8.247 0 14.931 6.715 14.931 15 0 8.283-6.684 14.999-14.93 14.999-8.247 0-14.932-6.716-14.932-15q0-.215.006-.428h-.006V17.143C34.134 7.675 41.774 0 51.198 0z"></path></g></svg>