<?xml version="1.0" encoding="UTF-8"?>
<svg version="1.1" xmlns="http://www.w3.org/2000/svg" width="512" height="512">
<path d="M0 0 C168.96 0 337.92 0 512 0 C512 168.96 512 337.92 512 512 C343.04 512 174.08 512 0 512 C0 343.04 0 174.08 0 0 Z " fill="#E0E9F0" transform="translate(0,0)"/>
<path d="M0 0 C8.30799021 4.40185192 15.24182158 10.53823292 22 17 C22.59039062 17.52722656 23.18078125 18.05445313 23.7890625 18.59765625 C53.40833017 46.04110094 64.6219767 91.38463545 74 129 C74.50625418 131.01162377 75.01398345 133.02287119 75.52191162 135.03407288 C78.6178319 147.29508851 81.68385054 159.56084431 84.5625 171.875 C91.97255155 204.09244737 91.97255155 204.09244737 104.0625 234.75 C104.37888428 235.39404785 104.69526855 236.0380957 105.02124023 236.70166016 C107.78537863 242.06254237 110.90547953 246.60365302 116 250 C121.77586196 250.66318308 127.18256267 250.84381019 132.5 248.375 C143.07752902 238.32634743 145.95629987 224.8814614 149 211 C149.15521118 210.29519501 149.31042236 209.59039001 149.47033691 208.86422729 C150.89856846 202.06674783 151.77000482 195.26166049 152.55078125 188.36328125 C152.84007237 185.90294509 153.12980051 183.44266028 153.41992188 180.98242188 C153.86549306 177.16842013 154.30776203 173.35413431 154.74194336 169.53881836 C163.12943283 96.16622795 163.12943283 96.16622795 190.625 74.25 C205.84707521 63.41264834 223.24730334 59.36806596 241.71484375 61.28125 C253.6606143 63.29479965 263.6749485 68.41351742 273 76 C273.98484375 76.77730469 274.9696875 77.55460937 275.984375 78.35546875 C296.26472642 95.39031549 308.99544214 127.66523363 312.44140625 153.28125 C312.69533359 159.24444696 311.74020089 164.24163331 308 169 C301.807777 174.81155355 296.84096898 176.32554144 288.46484375 176.21484375 C282.53078292 175.69761182 278.7234549 172.40935448 275 168 C271.77081677 162.61930633 270.1263032 157.19995903 268.75 151.125 C264.50459883 133.88676777 257.15912734 115.87707169 242.3125 105.1875 C236.85435022 101.93518143 231.59633777 102.14943758 225.5390625 103.58203125 C217.68516686 106.02169651 213.47551089 109.00967304 209.4140625 116.1953125 C203.4644427 127.99593962 200.91775351 141.0767202 199.0625 154.0625 C198.89484131 155.20444824 198.72718262 156.34639648 198.55444336 157.52294922 C197.27778861 166.45536235 196.27352801 175.40461808 195.30584717 184.3744812 C191.88927791 215.97153413 187.69783017 252.63245318 164 276 C163.36320313 276.64710938 162.72640625 277.29421875 162.0703125 277.9609375 C149.86544009 289.55809842 134.47795715 292.56620374 118.21972656 292.4855957 C102.15738149 292.01809317 90.36442191 284.86670427 79.3125 273.375 C69.14242019 261.4058808 63.31420549 247.61267973 58 233 C57.70383789 232.19916992 57.40767578 231.39833984 57.10253906 230.57324219 C49.74373961 210.46575339 45.06347118 189.46442226 40.45751953 168.58618164 C26.52393369 94.82764255 26.52393369 94.82764255 -17.5625 38.1875 C-26.50902888 33.27545676 -36.34387514 31.06261221 -46.5 30.5625 C-53.45839501 30.15596333 -57.64772272 27.47608135 -62.375 22.5 C-66.23558638 16.56063634 -66.94681401 10.959571 -66 4 C-63.76853247 -1.67922851 -59.8824328 -5.49738517 -55 -9 C-37.44438644 -14.85187119 -15.82837033 -7.59015315 0 0 Z " fill="#49575E" transform="translate(133,115)"/>
<path d="M0 0 C0.33 0 0.66 0 1 0 C1 13.53 1 27.06 1 41 C-12.53 41 -26.06 41 -40 41 C-36.77794772 39.38897386 -33.66489916 38.09649079 -30.3125 36.8125 C-16.32964928 30.99481758 -7.86955879 20.70813891 -2 7 C-1.17794005 4.65968578 -0.55034658 2.42152494 0 0 Z " fill="#000000" transform="translate(511,471)"/>
<path d="M0 0 C1.61102614 3.22205228 2.90350921 6.33510084 4.1875 9.6875 C10.00518242 23.67035072 20.29186109 32.13044121 34 38 C36.34031422 38.82205995 38.57847506 39.44965342 41 40 C41 40.33 41 40.66 41 41 C27.47 41 13.94 41 0 41 C0 27.47 0 13.94 0 0 Z " fill="#000000" transform="translate(0,471)"/>
<path d="M0 0 C13.53 0 27.06 0 41 0 C41 13.53 41 27.06 41 41 C39.38897386 37.77794772 38.09649079 34.66489916 36.8125 31.3125 C30.99481758 17.32964928 20.70813891 8.86955879 7 3 C4.65968578 2.17794005 2.42152494 1.55034658 0 1 C0 0.67 0 0.34 0 0 Z " fill="#000000" transform="translate(471,0)"/>
<path d="M0 0 C13.53 0 27.06 0 41 0 C37.77794772 1.61102614 34.66489916 2.90350921 31.3125 4.1875 C17.32964928 10.00518242 8.86955879 20.29186109 3 34 C2.17794005 36.34031422 1.55034658 38.57847506 1 41 C0.67 41 0.34 41 0 41 C0 27.47 0 13.94 0 0 Z " fill="#000000" transform="translate(0,0)"/>
</svg>
