<?xml version="1.0" encoding="utf-8"?>
<svg xmlns="http://www.w3.org/2000/svg" fill="none" height="120" viewBox="0 0 150 120" width="150">
<path d="M117.107 25.289V52.7302C112.976 50.2713 108.058 48.6976 104.025 48.6976C95.6651 48.6976 91.8292 55.4841 91.8292 63.746C91.8292 72.0079 95.6651 78.8928 104.025 78.8928C107.763 78.8928 112.484 77.5158 116.418 75.2536C135.007 49.8779 142.777 23.4202 119.959 11.3225C107.96 4.92934 98.5174 8.5685 91.6325 16.4369C91.1407 19.2893 90.0588 22.4366 88.5835 25.289H117.107Z" fill="#FF4B00"/>
<path d="M70.8793 119.513C78.2559 114.398 85.731 108.3 93.0093 101.514H59.5684C63.6009 107.317 67.4368 113.316 70.8793 119.513Z" fill="#FF4B00"/>
<path d="M40.3923 52.3375V25.2897H64.7845C64.096 24.0111 63.5059 22.7324 63.0141 21.3555C51.7032 7.0939 36.163 5.02843 23.8685 15.2574C12.656 24.5029 14.6231 36.2072 22.4915 50.0753C24.0652 49.1901 25.934 48.6983 28.1962 48.6983C31.9337 48.7967 36.458 50.0753 40.3923 52.3375Z" fill="#FF4B00"/>
<path d="M40.1973 75.4499C40.2956 75.5483 40.2956 75.6466 40.394 75.745V75.3516C40.394 75.3516 40.2956 75.4499 40.1973 75.4499Z" fill="#FF4B00"/>
<path d="M116.423 75.2527C112.489 77.5149 107.768 78.8919 104.03 78.8919C95.6698 78.8919 91.8339 72.1053 91.8339 63.8435C91.8339 55.5816 95.6698 48.795 104.03 48.795C108.063 48.795 112.98 50.3687 117.111 52.8276V25.288H88.4898C90.0635 22.4357 91.1454 19.2883 91.5388 16.436C81.8016 27.5502 76.9822 46.9263 76.9822 58.729C74.72 42.1069 69.5072 29.714 63.0157 21.3538C63.5075 22.7308 64.0976 24.0094 64.7861 25.288H40.3939V52.2375C36.4597 50.0737 31.9353 48.6967 28.1978 48.6967C25.9356 48.6967 24.0669 49.1885 22.4932 50.0737C26.9192 57.8438 33.3123 66.3023 40.1972 75.4494C40.2955 75.4494 40.2955 75.3511 40.3939 75.3511V75.7445C46.5903 83.8097 53.2785 92.465 59.4749 101.514H92.9158C101.571 93.3502 109.735 84.3998 116.423 75.2527Z" fill="#D2B6DE"/>
<path clip-rule="evenodd" d="M88.4881 25.2889C90.5536 21.453 91.8322 17.1254 91.8322 13.5846C91.8322 5.22433 85.0457 1.48682 76.6854 1.48682C68.3252 1.48682 61.5387 5.32269 61.5387 13.5846C61.5387 17.1254 62.8173 21.453 64.8828 25.2889H40.3922V52.2383C36.458 50.0745 31.9336 48.6975 28.1961 48.6975C19.8359 48.6975 16 55.4841 16 63.7459C16 72.0078 19.8359 78.7944 28.1961 78.7944C31.9336 78.7944 36.458 77.4174 40.3922 75.2536V101.416H117.11V74.8601C112.979 77.319 108.061 78.8927 104.028 78.8927C95.6681 78.8927 91.8322 72.1062 91.8322 63.8443C91.8322 55.5824 95.6681 48.7959 104.028 48.7959C108.061 48.7959 112.979 50.3696 117.11 52.8285V25.2889H88.4881Z" fill-rule="evenodd" stroke="black" stroke-miterlimit="10"/>
</svg>