<?xml version="1.0" encoding="utf-8"?>
<svg xmlns="http://www.w3.org/2000/svg" fill="none" height="120" viewBox="0 0 150 120" width="150">
<path d="M135.464 25.5133C132.963 21.9133 63.0261 -0.786674 59.5243 4.91333C55.5222 11.5133 49.9193 24.7133 49.519 29.5133C51.7202 27.9133 54.1215 26.5133 56.6228 25.3133C59.6243 23.8133 62.826 22.7133 66.1277 21.9133C75.6327 19.6133 85.638 20.4133 94.6427 24.2133C103.647 27.9133 111.051 34.4133 115.754 42.5133C120.456 50.6133 122.157 60.0133 120.656 69.2133C119.456 76.1133 116.554 82.5133 112.052 88.0133C120.956 89.0133 132.362 89.1133 132.663 87.2133C133.163 84.4133 138.766 30.2133 135.464 25.5133Z" fill="#FA0CF7"/>
<path d="M33.8145 72.7137C33.0141 69.8137 32.6139 66.9137 32.5138 64.0137C21.0078 69.7137 12.8035 74.3137 13.0036 76.0137C13.6039 81.4137 39.8176 117.614 43.1194 116.514C44.0198 116.214 50.4232 109.514 58.6275 100.614C57.0266 99.9137 55.5259 99.2137 54.0251 98.3137C43.9198 92.7137 36.616 83.5137 33.8145 72.7137Z" fill="#FA0CF7"/>
<path d="M115.755 42.4146C111.053 34.3146 103.649 27.8146 94.6444 24.1146C85.6397 20.4146 75.6345 19.6146 66.1295 21.8146C62.8278 22.6146 59.6261 23.8146 56.6245 25.2146C59.526 23.8146 62.6277 22.7146 65.8293 21.9146C75.3343 19.6146 85.3396 20.4146 94.3443 24.2146C103.349 27.9146 110.753 34.4146 115.455 42.5146C120.158 50.6146 121.859 60.0146 120.358 69.2146C119.157 76.0146 116.256 82.4146 111.853 87.8146C111.954 87.8146 111.954 87.8146 112.054 87.8146C116.556 82.3146 119.457 75.9146 120.658 69.0146C122.159 60.0146 120.458 50.6146 115.755 42.4146Z" fill="#E5BDBE"/>
<path d="M105.752 86.9129C105.451 86.8129 105.051 86.8129 104.751 86.7129C105.051 86.8129 105.451 86.9129 105.752 86.9129Z" fill="#FA0CF7"/>
<path d="M111.653 87.9145C111.353 87.9145 110.953 87.8145 110.653 87.8145C110.953 87.8145 111.353 87.8145 111.653 87.9145Z" fill="#FA0CF7"/>
<path d="M110.051 87.7137C109.651 87.7137 109.35 87.6137 109.05 87.5137C109.35 87.6137 109.751 87.6137 110.051 87.7137Z" fill="#FA0CF7"/>
<path d="M108.647 87.5145C108.247 87.4145 107.746 87.4145 107.346 87.3145C107.846 87.3145 108.247 87.4145 108.647 87.5145Z" fill="#FA0CF7"/>
<path d="M49.5175 30.8145C49.5175 30.7145 49.4175 30.5145 49.4175 30.3145C49.5175 30.5145 49.5175 30.7145 49.5175 30.8145Z" fill="#FA0CF7"/>
<path d="M107.45 87.3129C107.349 87.3129 107.149 87.2129 107.049 87.2129C107.149 87.2129 107.249 87.2129 107.45 87.3129Z" fill="#E5BDBE"/>
<path d="M110.651 87.8129C110.451 87.8129 110.251 87.8129 110.051 87.7129C110.251 87.7129 110.451 87.7129 110.651 87.8129Z" fill="#E5BDBE"/>
<path d="M106.152 87.0141C106.052 87.0141 105.852 86.9141 105.752 86.9141C105.852 87.0141 106.052 87.0141 106.152 87.0141Z" fill="#E5BDBE"/>
<path d="M58.8208 100.514C64.1236 94.8141 70.2268 88.1141 76.0298 81.7141C87.0356 69.7141 97.341 58.3141 100.943 54.9141C95.54 60.1141 74.1288 84.0141 58.8208 100.514Z" fill="#E5BDBE"/>
<path d="M49.5159 29.6138C49.5159 29.9138 49.5159 30.1138 49.5159 30.3138C49.5159 30.3138 49.5159 30.3138 49.5159 30.4138C49.5159 30.6138 49.5159 30.8138 49.6159 30.9138C50.0161 32.1138 51.717 33.3138 54.2183 34.3138C61.7223 37.3138 77.1304 39.1138 90.4373 38.6138C75.4295 44.8138 50.3163 55.5138 32.8071 64.1138C32.9072 67.0138 33.4074 69.9138 34.1078 72.8138C37.0093 83.5138 44.3132 92.8138 54.4185 98.5138C55.9192 99.3138 57.42 100.114 58.9208 100.714C74.1288 84.0138 95.54 60.1138 100.943 54.9138C95.7401 68.9138 98.3415 83.5138 101.943 85.7138C102.143 85.8138 102.344 85.9138 102.544 86.0138C102.644 86.0138 102.644 86.1138 102.744 86.1138C102.944 86.2138 103.144 86.2138 103.344 86.3138C103.444 86.3138 103.544 86.4138 103.544 86.4138C103.844 86.5138 104.145 86.6138 104.445 86.7138H104.545C104.845 86.8138 105.145 86.9138 105.545 86.9138C105.645 86.9138 105.845 87.0138 105.945 87.0138C106.246 87.1138 106.546 87.1138 106.846 87.2138C106.946 87.2138 107.146 87.3138 107.246 87.3138C107.646 87.4138 108.047 87.4138 108.547 87.5138C108.647 87.5138 108.747 87.5138 108.947 87.6138C109.247 87.7138 109.647 87.7138 109.948 87.8138C110.148 87.8138 110.348 87.9138 110.548 87.9138C110.848 87.9138 111.148 88.0138 111.548 88.0138C111.648 88.0138 111.648 88.0138 111.748 88.0138C116.151 82.6138 119.052 76.2138 120.253 69.4138C121.854 60.2138 120.153 50.9138 115.35 42.7138C110.748 34.4138 103.244 28.0138 94.3394 24.3138C85.3347 20.6138 75.3294 19.8138 65.8244 22.0138C62.6228 22.8138 59.5211 23.9138 56.6196 25.3138C54.0182 26.5138 51.717 27.9138 49.5159 29.6138Z" fill="#E5BDBE"/>
<path d="M65.9253 22.0135C75.4303 19.7135 85.4356 20.5135 94.4403 24.3135C103.445 28.0135 110.849 34.5135 115.551 42.6135C120.254 50.7135 121.955 60.1135 120.454 69.3135C118.853 78.5135 114.151 86.8135 106.947 93.2135L111.849 107.114L96.4413 100.114C93.6399 101.414 90.7383 102.414 87.6367 103.114C76.2307 105.814 64.2244 104.114 54.1192 98.4135C44.0139 92.7135 36.71 83.5135 33.8085 72.7135C31.007 62.0135 32.808 50.6135 38.8111 41.1135C44.8143 31.6135 54.5194 24.7135 65.9253 22.0135Z" stroke="black" stroke-miterlimit="10"/>
</svg>