<?xml version="1.0" encoding="utf-8"?>
<svg xmlns="http://www.w3.org/2000/svg" fill="none" height="120" viewBox="0 0 150 120" width="150">
<path d="M37 77.7141C36.3 76.2141 35.7 74.7141 35.1 73.1141H21V46.1141H35.1C35.6 44.5141 36.3 43.0141 37 41.5141L27.1 31.6141L32.8 25.9141C19.3 31.9141 8.6 41.6141 8 56.5141C7.7 63.5141 10.7 69.6141 15.2 74.7141L0.5 105.514L29 89.5141L27 87.5141L37 77.7141Z" fill="#00F6FF"/>
<path d="M60.7016 20.3129V18.2129C58.2016 18.6129 55.7016 19.0129 53.1016 19.5129L55.9016 22.3129C57.4016 21.6129 59.0016 20.9129 60.7016 20.3129Z" fill="#00F6FF"/>
<path d="M55.1016 97.6144C56.6016 97.9144 58.1016 98.2145 59.6016 98.4145C58.4016 97.9145 57.1016 97.4145 55.9016 96.8145L55.1016 97.6144Z" fill="#00F6FF"/>
<path d="M88 99.0129C89.9 98.8129 91.8 98.6129 93.7 98.3129L92.6 97.2129C91.1 97.8129 89.6 98.5129 88 99.0129Z" fill="#00F6FF"/>
<path d="M74.2016 77.1141C84.4741 77.1141 92.8016 68.7866 92.8016 58.5141C92.8016 48.2416 84.4741 39.9141 74.2016 39.9141C63.9291 39.9141 55.6016 48.2416 55.6016 58.5141C55.6016 68.7866 63.9291 77.1141 74.2016 77.1141Z" fill="#00F6FF"/>
<path d="M92.6016 22.0133L96.9016 17.7133C93.7016 17.4133 90.5016 17.2133 87.6016 17.1133V20.0133C89.3016 20.6133 91.0016 21.3133 92.6016 22.0133Z" fill="#00F6FF"/>
<path d="M148.6 52.7141C146.3 32.0141 128 23.1141 109 19.4141L121.2 31.6141L111.8 41.0141C112.6 42.7141 113.3 44.4141 114 46.1141H127.3V73.1141H114C113.4 74.9141 112.7 76.6141 111.8 78.2141L121.2 87.6141L116.7 92.1141C136.5 84.3141 150.6 70.6141 148.6 52.7141Z" fill="#00F6FF"/>
<path d="M111.8 78.2129C112.6 76.5129 113.3 74.813 114 73.1129H127.3V46.1129H114C113.4 44.313 112.7 42.613 111.8 41.013L121.2 31.613L109 19.413C105 18.613 100.9 18.113 96.9 17.713L92.6 22.013C91 21.213 89.3 20.513 87.6 20.013V17.113C82.8 16.913 78.4 16.913 74.6 17.013C70.5 17.113 65.7 17.513 60.6 18.213V20.313C59 20.913 57.4 21.5129 55.9 22.313L53.1 19.513C46.3 20.913 39.2 23.013 32.8 25.913L27.1 31.613L37 41.513C36.3 43.013 35.7 44.5129 35.1 46.1129H21V73.1129H35.1C35.6 74.7129 36.3 76.2129 37 77.7129L27.1 87.613L29.1 89.613L31.4 88.313C38.1 92.813 46.3 95.9129 55.2 97.713L56 96.913C57.2 97.513 58.4 98.013 59.7 98.513C68.7 99.913 78.5 100.013 88 99.013C89.6 98.513 91.1 97.813 92.6 97.113L93.7 98.213C101.7 97.013 109.5 94.913 116.6 92.113L121.1 87.613L111.8 78.2129ZM74.2 77.1129C63.9 77.1129 55.5 68.813 55.5 58.513C55.5 48.213 63.8 39.913 74.1 39.913C84.4 39.913 92.7 48.213 92.7 58.513C92.8 68.813 84.5 77.1129 74.2 77.1129Z" fill="#98E891"/>
<path clip-rule="evenodd" d="M60.7016 6.51367H87.7016V20.0137C89.4016 20.6137 91.1016 21.2137 92.7016 22.0137L102.202 12.5137L121.302 31.6137L111.902 41.0137C112.702 42.7137 113.502 44.4137 114.102 46.1137H127.402V73.1137H114.102C113.502 74.9137 112.802 76.6137 111.902 78.2137L121.302 87.6137L102.202 106.714L92.7016 97.2137C91.1016 98.0137 89.4016 98.7137 87.7016 99.2137V112.714H60.7016V98.9137C59.1016 98.3137 57.5016 97.7137 56.0016 96.9137L46.2016 106.714L27.1016 87.6137L37.0016 77.7137C36.3016 76.2137 35.7016 74.7137 35.1016 73.1137H21.1016V46.1137H35.2016C35.7016 44.5137 36.4016 43.0137 37.1016 41.5137L27.2016 31.6137L46.2016 12.5137L56.0016 22.3137C57.5016 21.5137 59.1016 20.9137 60.7016 20.3137V6.51367ZM74.2016 77.1137C84.5016 77.1137 92.8016 68.8137 92.8016 58.5137C92.8016 48.2137 84.5016 39.9137 74.2016 39.9137C63.9016 39.9137 55.6016 48.2137 55.6016 58.5137C55.6016 68.8137 63.9016 77.1137 74.2016 77.1137Z" fill-rule="evenodd" stroke="black" stroke-miterlimit="10"/>
</svg>