<svg width="42" height="42" viewBox="0 0 42 42" fill="none" xmlns="http://www.w3.org/2000/svg">
<g filter="url(#filter0_d_2406_80)">
<path d="M24.3007 29.1059L31.2807 8.9008C31.3515 8.69595 31.1459 8.50424 30.9465 8.58915L10.81 17.1635C10.6037 17.2513 10.6084 17.5452 10.8173 17.6265L19.4197 20.9731C19.4754 20.9948 19.5215 21.0357 19.5496 21.0885L23.8438 29.1419C23.9465 29.3345 24.2294 29.3122 24.3007 29.1059Z" fill="black"/>
<path d="M32.2259 9.22732L25.2459 29.4324C24.8895 30.464 23.4749 30.5755 22.9614 29.6124L18.798 21.8043L10.4547 18.5585C9.41019 18.1521 9.38699 16.6825 10.4182 16.2434L30.5547 7.66909C31.5517 7.24456 32.5797 8.2031 32.2259 9.22732ZM18.6672 21.559C18.6673 21.5592 18.6675 21.5595 18.6676 21.5597L18.6672 21.559L19.329 21.2061L18.6672 21.559Z" stroke="#121212" stroke-width="2" stroke-linecap="square"/>
</g>
<defs>
<filter id="filter0_d_2406_80" x="0.657959" y="0.563416" width="40.6414" height="40.7111" filterUnits="userSpaceOnUse" color-interpolation-filters="sRGB">
<feFlood flood-opacity="0" result="BackgroundImageFix"/>
<feColorMatrix in="SourceAlpha" type="matrix" values="0 0 0 0 0 0 0 0 0 0 0 0 0 0 0 0 0 0 127 0" result="hardAlpha"/>
<feOffset dy="2"/>
<feGaussianBlur stdDeviation="4"/>
<feColorMatrix type="matrix" values="0 0 0 0 0.388235 0 0 0 0 0.388235 0 0 0 0 0.388235 0 0 0 0.2 0"/>
<feBlend mode="normal" in2="BackgroundImageFix" result="effect1_dropShadow_2406_80"/>
<feBlend mode="normal" in="SourceGraphic" in2="effect1_dropShadow_2406_80" result="shape"/>
</filter>
</defs>
</svg>
