<svg width="354" height="284" viewBox="0 0 354 284" fill="none" xmlns="http://www.w3.org/2000/svg">
<path d="M329.287 12.6354L106.296 10.6894" stroke="#737373" stroke-width="2" stroke-linecap="round" stroke-linejoin="round" stroke-dasharray="6 9"/>
<path d="M107.296 10.6981V10.6981C92.3425 10.5676 84.8659 10.5024 79.2688 13.669C75.6021 15.7436 72.5461 18.7467 70.4079 22.3767C67.144 27.9176 67.0787 35.3943 66.9482 50.3475L65.3513 233.341C65.2208 248.294 65.1555 255.77 61.8917 261.311C59.7535 264.941 56.6974 267.945 53.0307 270.019C47.4337 273.186 39.957 273.12 25.0037 272.99V272.99" stroke="#737373" stroke-width="2" stroke-linecap="round" stroke-linejoin="round" stroke-dasharray="6 9"/>
<path d="M336.217 20.6962L347.287 12.7925L336.357 4.69681L336.217 20.6962Z" fill="#D4D4D4" stroke="#121212" stroke-width="2" stroke-linecap="round" stroke-linejoin="round"/>
<circle cx="13.0129" cy="271.885" r="9" transform="rotate(0.5 13.0129 271.885)" fill="#D4D4D4" stroke="#121212" stroke-width="2" stroke-linecap="round" stroke-linejoin="round"/>
</svg>
