<svg width="340" height="156" viewBox="0 0 340 156" fill="none" xmlns="http://www.w3.org/2000/svg">
<path d="M315.198 15.7401V15.7401C300.245 15.6097 292.768 15.5444 287.171 18.7111C283.504 20.7856 280.448 23.7887 278.31 27.4187C275.046 32.9596 274.981 40.4363 274.851 55.3896L274.336 114.387C274.205 129.341 274.14 136.817 270.876 142.358C268.738 145.988 265.682 148.991 262.015 151.066C256.418 154.232 248.941 154.167 233.988 154.037V154.037" stroke="#737373" stroke-width="2" stroke-linecap="round" stroke-linejoin="round" stroke-dasharray="6 9"/>
<path d="M79.9941 152.693L233.988 154.037" stroke="#737373" stroke-width="2" stroke-linecap="round" stroke-linejoin="round" stroke-dasharray="6 9"/>
<path d="M1.21008 13V13C16.1634 13.1305 23.64 13.1957 29.181 16.4596C32.8109 18.5978 35.814 21.6538 37.8886 25.3205C41.0552 30.9176 40.99 38.3943 40.8595 53.3475L40.3446 112.345C40.2141 127.299 40.1489 134.775 43.3156 140.372C45.3901 144.039 48.3932 147.095 52.0232 149.233C57.5641 152.497 65.0408 152.562 79.994 152.693V152.693" stroke="#737373" stroke-width="2" stroke-linecap="round" stroke-linejoin="round" stroke-dasharray="6 9"/>
<path d="M322.128 23.8009L333.197 15.8972L322.268 7.80154L322.128 23.8009Z" fill="#D4D4D4" stroke="#121212" stroke-width="2" stroke-linecap="round" stroke-linejoin="round"/>
</svg>
