<svg width="91" height="86" viewBox="0 0 91 86" fill="none" xmlns="http://www.w3.org/2000/svg">
<path d="M45 64.5C45 52.6259 54.6259 43 66.5 43H91V86H66.5C54.6259 86 45 76.3741 45 64.5Z" fill="#FF98D5"/>
<path d="M0 21.5238C0 9.63653 9.63653 0 21.5238 0L48.053 0V43.0476H21.5238C9.63653 43.0476 0 33.4111 0 21.5238Z" fill="black"/>
<path d="M90.6186 21.5248C90.6186 33.279 81.09 42.8076 69.3358 42.8076C57.5816 42.8076 48.0529 33.279 48.0529 21.5248C48.0529 9.77055 57.5816 0.24189 69.3358 0.24189C81.09 0.24189 90.6186 9.77055 90.6186 21.5248Z" fill="#0997D5"/>
<circle cx="23.7569" cy="64.222" r="21.2829" fill="#FF5C37"/>
</svg>
