<svg width="1475" height="1080" viewBox="0 0 1475 1080" fill="none" xmlns="http://www.w3.org/2000/svg">
<path d="M1458.04 301.719C1444.88 197.738 1402.97 88.9199 1300.81 28.1199C1245.05 -5.0437 1201.76 -12.6436 1142.88 -8.49817C1010.24 -0.207258 940.626 75.1016 892.833 170.447C880.365 194.974 875.517 188.41 869.975 169.41C846.772 86.1551 802.442 6.01084 701.315 -15.0619C551.702 -45.8073 456.115 22.2465 387.196 156.974C377.846 175.283 375.075 182.191 366.763 160.428C307.195 -0.208858 95.9357 3.59173 -12.4645 76.8281C-181.125 190.483 -222.684 443.701 -221.992 642.683C-221.299 821.628 -162.77 1095.92 69.2691 1086.59C170.05 1082.45 269.446 1011.63 310.659 911.448C318.624 892.448 322.088 874.137 328.322 901.428C396.894 1208.88 783.048 1132.19 857.161 907.992C867.898 875.864 874.131 882.773 881.75 907.992C921.232 1035.46 1064.61 1116.99 1194.48 1085.9C1467.73 1020.96 1502.37 650.628 1458.38 301.719H1458.04Z" fill="#99CEFF"/>
</svg>
