<svg width="802" height="1080" viewBox="0 0 802 1080" fill="none" xmlns="http://www.w3.org/2000/svg">
<g clip-path="url(#clip0_57461_2226)">
<rect width="802" height="1208" transform="translate(0 -64)" fill="#ADFE00"/>
<g clip-path="url(#clip1_57461_2226)">
<path d="M778.662 927.215C728.114 1202.28 485.761 1167.48 258.012 1160.46C152.983 1157.37 -164.067 1120.89 -41.6277 940.126C3.02345 874.447 129.395 835.713 225.437 802.031C297.609 777.05 254.643 770.034 225.437 768.069C97.3808 759.648 -102.286 745.895 -43.3126 580.012C-3.71627 468.301 161.971 400.656 285.253 373.711C345.349 360.519 310.807 350.414 291.43 343.678C221.786 319.82 149.614 301.576 131.922 227.195C111.983 144.394 159.444 59.3473 208.588 22.578C329.062 -67.5208 608.482 -104.009 734.291 -6.0512C833.703 71.4169 825.84 236.738 827.244 348.73C829.491 542.12 813.765 736.913 778.943 927.776L778.662 927.215Z" fill="#4F8A03"/>
</g>
<rect x="581" y="-11" width="253" height="1108" fill="#4F8A03"/>
</g>
<defs>
<clipPath id="clip0_57461_2226">
<rect width="802" height="1208" fill="white" transform="translate(0 -64)"/>
</clipPath>
<clipPath id="clip1_57461_2226">
<rect width="1235" height="908" fill="white" transform="matrix(0 1 1 0 -74 -69)"/>
</clipPath>
</defs>
</svg>
