<?xml version="1.0" encoding="UTF-8"?>
<svg version="1.1" xmlns="http://www.w3.org/2000/svg" width="610" height="344">
<path d="M0 0 C201.3 0 402.6 0 610 0 C610 113.52 610 227.04 610 344 C408.7 344 207.4 344 0 344 C0 230.48 0 116.96 0 0 Z " fill="#EDE7F5" transform="translate(0,0)"/>
<path d="M0 0 C0.7734375 -0.01224609 1.546875 -0.02449219 2.34375 -0.03710938 C11.88022972 -0.06111058 20.11747105 2.12177186 27.05078125 8.96484375 C29.47842754 11.70536092 31.08000667 13.67752001 32.25 17.1875 C31.23679687 17.53361328 31.23679687 17.53361328 30.203125 17.88671875 C22.90388453 20.38804836 22.90388453 20.38804836 18.25 26.1875 C17.37382065 31.34249694 17.43629786 34.92996033 20.3125 39.375 C23.1718415 41.4734753 23.1718415 41.4734753 26.75 41.3125 C31.96246022 39.63706636 34.27869592 36.64445612 37.25 32.1875 C37.70394552 29.90837062 37.70394552 29.90837062 37.875 27.5 C37.94976562 26.69175781 38.02453125 25.88351563 38.1015625 25.05078125 C38.17503906 24.12845703 38.17503906 24.12845703 38.25 23.1875 C46.8368353 23.747511 55.3887213 27.82120251 61.25 34.1875 C72.31053789 47.55689769 79.57934427 65.45077804 79.3125 83.0625 C79.30347656 83.84367187 79.29445313 84.62484375 79.28515625 85.4296875 C79.26775391 86.29980469 79.26775391 86.29980469 79.25 87.1875 C80.14332031 87.57808594 80.14332031 87.57808594 81.0546875 87.9765625 C83.39234169 89.26601588 84.67384575 90.52289622 86.375 92.5625 C86.87257813 93.14773437 87.37015625 93.73296875 87.8828125 94.3359375 C91.33623374 99.01285656 91.33623374 99.01285656 91.10546875 102.15625 C89.99863174 104.78435614 88.43988127 106.5419214 86.5625 108.6875 C83.36661693 112.50102714 81.28130317 116.06246456 79.3125 120.625 C76.86612923 125.82933889 76.86612923 125.82933889 74.16015625 127.40234375 C71.875 128.0625 71.875 128.0625 69.515625 128.5625 C66.91541205 129.27980012 65.64816908 130.30322254 63.625 132.0625 C50.89525541 141.96891602 35.51448106 140.80384443 20.25 140.1875 C20.25 141.8375 20.25 143.4875 20.25 145.1875 C38.14695846 144.73227944 53.7199717 143.48246457 68.8125 132.75 C69.616875 132.234375 70.42125 131.71875 71.25 131.1875 C72.24 131.5175 73.23 131.8475 74.25 132.1875 C74.22679687 132.81398437 74.20359375 133.44046875 74.1796875 134.0859375 C74.16164063 134.90320313 74.14359375 135.72046875 74.125 136.5625 C74.10179687 137.37460938 74.07859375 138.18671875 74.0546875 139.0234375 C74.03629949 141.40092243 74.03629949 141.40092243 76.25 143.1875 C78.78951544 143.09638062 78.78951544 143.09638062 81.25 142.1875 C83.57579101 138.69881349 83.66865457 137.29031481 83.25 133.1875 C82.734375 132.548125 82.21875 131.90875 81.6875 131.25 C80.25 129.1875 80.25 129.1875 80.125 126.125 C81.6462268 118.45272569 87.48934615 110.84332549 93.54296875 106.07421875 C95.25 105.1875 95.25 105.1875 98.625 105.25 C101.25 106.1875 101.25 106.1875 102.25 107.1875 C103.26707429 114.8882053 100.33540923 120.72639051 96.25 127.1875 C95.26 127.8475 94.27 128.5075 93.25 129.1875 C93.25 125.2275 93.25 121.2675 93.25 117.1875 C91.93 117.1875 90.61 117.1875 89.25 117.1875 C89.19597726 119.29138569 89.15719744 121.39566714 89.125 123.5 C89.10179687 124.67175781 89.07859375 125.84351563 89.0546875 127.05078125 C88.99679382 130.35143661 88.99679382 130.35143661 91.25 133.1875 C94.01276177 132.66481534 96.5760876 132.07880413 99.25 131.1875 C100.24 133.6625 100.24 133.6625 101.25 136.1875 C103.58165034 136.52248301 103.58165034 136.52248301 106.25 136.1875 C108.43777466 134.2499994 108.43777466 134.2499994 110.25 132.1875 C110.91 132.1875 111.57 132.1875 112.25 132.1875 C112.58 133.5075 112.91 134.8275 113.25 136.1875 C117.14546651 136.65124601 118.92653545 136.38553952 122.3125 134.3125 C127.05211456 129.94510648 129.41466442 123.60837701 131.4765625 117.6328125 C133.581305 113.54386341 135.9755441 111.95138109 139.9375 109.9375 C140.88133545 109.43283203 140.88133545 109.43283203 141.84423828 108.91796875 C149.17262752 105.0639048 154.90270701 102.74032359 163.25 103.1875 C162.54933202 105.61250692 161.83165755 108.02978865 161.0859375 110.44140625 C160.57330502 112.1254279 160.09167316 113.81975185 159.6640625 115.52734375 C158.80039534 118.53896236 158.04803034 120.71723212 155.28125 122.34765625 C153.0625 123.1875 153.0625 123.1875 149.25 124.1875 C148.87875 123.218125 148.5075 122.24875 148.125 121.25 C146.5425712 117.92726471 146.5425712 117.92726471 143.25 117.1875 C140.06509993 116.9101499 140.06509993 116.9101499 137.25 119.1875 C136.83333333 122.6875 136.83333333 122.6875 137.25 126.1875 C139.60953094 128.54703094 141.02895617 128.67891413 144.25 129.1875 C143.22394229 135.60036071 139.38547057 140.8477026 134.4375 144.8359375 C123.17917384 151.79197473 109.2312976 151.54966989 96.44897461 152.22900391 C95.6186874 152.27333093 94.78840019 152.31765795 93.93295276 152.36332822 C74.58561012 153.37175482 55.25577236 153.51648991 35.88610196 153.52201414 C33.01773361 153.52346207 30.14938303 153.52777828 27.28101921 153.53300858 C17.23575542 153.55128414 7.19054356 153.55970291 -2.85473633 153.55810547 C-12.17129538 153.55689132 -21.48762763 153.57829722 -30.80412906 153.6095928 C-38.87543704 153.63572724 -46.94667025 153.64647484 -55.01802021 153.64519465 C-59.80932673 153.64468671 -64.60042755 153.65028494 -69.39169121 153.67155075 C-73.86803719 153.69089983 -78.34397902 153.69108086 -82.8203392 153.67651749 C-84.45740793 153.67442829 -86.09450199 153.67913693 -87.73152733 153.6912384 C-89.9695991 153.70671343 -92.20627817 153.697372 -94.44432068 153.68197632 C-95.69377189 153.68306585 -96.94322309 153.68415539 -98.23053646 153.68527794 C-103.62321745 152.9225601 -107.3611214 150.7692784 -111 146.625 C-116.62364906 135.57854649 -117.49702008 123.48818443 -114.1875 111.5625 C-111.68298368 104.27256857 -108.32752497 95.57251664 -101.75 91.1875 C-101.49605469 91.74179688 -101.24210938 92.29609375 -100.98046875 92.8671875 C-100.63628906 93.59164062 -100.29210937 94.31609375 -99.9375 95.0625 C-99.60105469 95.78179687 -99.26460937 96.50109375 -98.91796875 97.2421875 C-97.75532903 99.49292806 -97.75532903 99.49292806 -94.75 101.1875 C-91.29230809 101.77092353 -91.29230809 101.77092353 -87.75 101.1875 C-84.8263541 98.6386805 -83.90090824 96.99234394 -83.1875 93.1875 C-83.97356447 88.99515618 -85.32248614 87.70567345 -88.75 85.1875 C-91.71625154 84.23016464 -94.6686163 83.63728803 -97.75 83.1875 C-98.30929599 69.93529217 -97.62401689 59.75129421 -89.41015625 48.74609375 C-87.37298724 46.83355155 -85.3757285 46.08051426 -82.75 45.1875 C-82.41226563 45.89777344 -82.07453125 46.60804688 -81.7265625 47.33984375 C-81.28054687 48.25894531 -80.83453125 49.17804688 -80.375 50.125 C-79.93414062 51.04152344 -79.49328125 51.95804688 -79.0390625 52.90234375 C-77.95800838 55.31653802 -77.95800838 55.31653802 -75.75 56.1875 C-70.92677571 56.74841974 -70.92677571 56.74841974 -66.8125 54.625 C-65.31560957 51.19095726 -65.22918923 48.89827676 -65.75 45.1875 C-68.86374332 41.06636913 -71.78859422 39.45669683 -76.75 38.1875 C-75.76459292 31.27733285 -71.72905912 25.64374411 -66.390625 21.2421875 C-59.13124158 16.33142813 -53.44604117 15.69483891 -44.75 16.1875 C-41 17.1875 -41 17.1875 -38.75 18.1875 C-38.91113281 18.89777344 -39.07226562 19.60804688 -39.23828125 20.33984375 C-39.75207886 23.19906864 -39.91731573 25.84750174 -39.9375 28.75 C-39.95167969 29.67941406 -39.96585937 30.60882813 -39.98046875 31.56640625 C-39.74036157 34.29711667 -39.2301759 35.89712255 -37.75 38.1875 C-34.70016004 39.71241998 -32.1076631 39.42312548 -28.75 39.1875 C-26.13406847 37.35634793 -25.78010545 36.27781634 -24.75 33.1875 C-24.10526373 27.59978567 -25.16370846 24.87020768 -28.4609375 20.5703125 C-29.72230666 19.05580503 -29.72230666 19.05580503 -31.75 18.1875 C-29.3405987 10.89589079 -23.12560184 6.18816117 -16.4375 2.75 C-10.96282667 0.19056152 -5.95298465 0.00486355 0 0 Z " fill="#FBFBFB" transform="translate(332.75,109.8125)"/>
<path d="M0 0 C2.9375 0.6875 2.9375 0.6875 5.1875 3.0625 C9.60646343 10.91641026 9.26149446 20.58115315 9.1875 29.3125 C9.18145752 30.45605957 9.17541504 31.59961914 9.16918945 32.77783203 C8.74848864 68.87651136 8.74848864 68.87651136 -1.0625 78.6875 C-3.35497192 78.70215775 -5.64834015 78.62405467 -7.9375 78.5 C-19.64194717 78.206335 -28.46029512 82.96963394 -37.0625 90.6875 C-37.76246094 91.30625 -38.46242187 91.925 -39.18359375 92.5625 C-49.53710346 102.27013859 -55.95731818 115.61537641 -56.5078125 129.79589844 C-56.78767698 143.95404272 -53.49694914 154.0770855 -43.4453125 164.58203125 C-34.67216978 172.44648101 -34.67216978 172.44648101 -24.0625 176.6875 C-24.10890625 175.77871094 -24.1553125 174.86992187 -24.203125 173.93359375 C-24.64630929 158.50128364 -21.16531327 144.35671833 -11.3125 132.0625 C-9.0625 129.6875 -9.0625 129.6875 -7.0625 128.6875 C-7.04062622 127.85726318 -7.04062622 127.85726318 -7.01831055 127.01025391 C-6.14379646 97.31385675 -6.14379646 97.31385675 4.96484375 86.76171875 C8.21391169 84.2265987 10.85744573 82.49444407 14.9375 81.6875 C14.97875 80.718125 15.02 79.74875 15.0625 78.75 C16.28523208 70.55439039 22.58974208 64.7004104 28.49609375 59.4140625 C34.39498677 55.24236536 39.49963301 54.23837845 46.5 54.4375 C47.59344727 54.44523437 47.59344727 54.44523437 48.70898438 54.453125 C52.05623885 54.50133028 54.97479444 54.69578278 58.26171875 55.42578125 C60.96846301 56.00785162 60.96846301 56.00785162 62.703125 54.24609375 C63.43789063 53.19615234 63.43789063 53.19615234 64.1875 52.125 C69.95543238 44.85791339 78.00711329 40.84756696 86.9375 38.6875 C90.4504643 38.29376508 93.90565455 38.26623128 97.4375 38.3125 C98.32308594 38.30089844 99.20867187 38.28929687 100.12109375 38.27734375 C110.07821963 38.32120774 119.35719467 41.30050779 126.62890625 48.3203125 C129.21641922 51.21262023 131.00778329 53.80133229 132.5 57.375 C133.93986351 60.09743101 134.82846532 60.64430898 137.7578125 61.8046875 C140.03805578 62.44484861 142.32349484 63.06673548 144.61328125 63.671875 C149.44514897 65.14812131 153.0410509 67.52884008 156.9375 70.6875 C157.53949219 71.16574219 158.14148438 71.64398438 158.76171875 72.13671875 C168.38802728 80.72468389 174.26130113 94.6828 177.0625 107 C177.24006836 107.74693115 177.41763672 108.4938623 177.60058594 109.26342773 C178.52864276 113.30942215 179.09696518 117.08539849 179.1875 121.25 C179.52373349 126.34523061 182.23344602 128.4729227 185.92578125 131.734375 C188.98229388 134.70186299 190.31731813 137.77206048 191.9375 141.6875 C191.9375 142.3475 191.9375 143.0075 191.9375 143.6875 C193.83435547 143.67009766 193.83435547 143.67009766 195.76953125 143.65234375 C197.42968602 143.64296434 199.08984239 143.6338643 200.75 143.625 C201.58337891 143.61662109 202.41675781 143.60824219 203.27539062 143.59960938 C204.07783203 143.59638672 204.88027344 143.59316406 205.70703125 143.58984375 C206.44542236 143.58460693 207.18381348 143.57937012 207.94458008 143.57397461 C209.9375 143.6875 209.9375 143.6875 212.9375 144.6875 C213.5975 144.3575 214.2575 144.0275 214.9375 143.6875 C221.96992409 143.1110718 221.96992409 143.1110718 225.875 145.4375 C227.97678669 147.73035821 228.35135929 148.75062654 228.9375 151.6875 C229.90429688 151.14480469 230.87109375 150.60210937 231.8671875 150.04296875 C241.71950072 144.59483108 250.61224253 140.73613495 261.9375 139.6875 C262.19402344 138.85347656 262.45054687 138.01945313 262.71484375 137.16015625 C265.75843963 128.21382898 269.49090808 121.36403428 277.89599609 116.57055664 C285.0947678 113.16152656 292.24110426 113.1060288 300.03417969 113.22094727 C302.19803496 113.25014214 304.35946558 113.24147208 306.5234375 113.22851562 C318.45528131 113.28189448 318.45528131 113.28189448 323.9375 116.6875 C326.93644943 121.18592414 326.37036468 125.41058983 325.9375 130.6875 C325.27228915 134.00354605 324.24577874 137.12471384 323.125 140.3125 C322.82021729 141.21693848 322.51543457 142.12137695 322.20141602 143.05322266 C321.51282799 145.09658952 320.8183749 147.13798609 320.11914062 149.17773438 C319.02455337 152.42892989 317.97198644 155.68961919 316.93595886 158.95974731 C315.99494778 161.92680055 315.04051727 164.88945768 314.08462524 167.85174561 C313.61604535 169.31155143 313.15206186 170.77284161 312.69296265 172.23565674 C309.23046796 183.23138922 305.78763252 192.71680413 295.15820312 198.58886719 C288.72147858 200.78453581 282.01268823 200.49185348 275.27734375 200.35986328 C272.67843985 200.31233431 270.08360846 200.31880983 267.484375 200.33203125 C265.81768406 200.32088476 264.15101021 200.3066694 262.484375 200.2890625 C261.71550964 200.29088531 260.94664429 200.29270813 260.15447998 200.29458618 C255.00467022 200.15973972 252.0225847 199.0773658 247.9375 195.6875 C245.04622087 191.35058131 245.25068451 187.78193724 245.9375 182.6875 C247.34489667 178.23483039 249.06159795 173.9618768 250.9375 169.6875 C248.45844656 170.35835452 248.45844656 170.35835452 245.9375 171.6875 C244.76358179 173.76479947 244.76358179 173.76479947 244.125 176.25 C241.29376363 184.02466496 236.51164388 189.72006879 229.125 193.5625 C217.35231635 198.21383278 204.46090334 198.83172251 191.94628906 199.24853516 C190.75222065 199.28923441 189.55815224 199.32993366 188.32789993 199.37186623 C169.96951838 199.93437126 151.59972813 199.9153068 133.234375 199.9609375 C132.2422403 199.96358628 131.25010561 199.96623506 130.22790623 199.9689641 C120.84543143 199.99400634 111.46295599 200.01593051 102.08045578 200.02869225 C90.17342986 200.04501607 78.26672512 200.07854871 66.35982013 200.13509309 C57.92438089 200.17377373 49.48902791 200.19332015 41.05350232 200.19861281 C36.03670749 200.20225615 31.02026061 200.2141785 26.00356293 200.24671555 C21.3048848 200.27677897 16.6067662 200.28311436 11.90801239 200.27133179 C10.18911652 200.27111121 8.4701945 200.27940281 6.75138855 200.29698563 C-9.40676159 200.45327554 -9.40676159 200.45327554 -16.0625 194.6875 C-16.55878906 193.93025635 -17.05507812 193.1730127 -17.56640625 192.39282227 C-19.07716265 190.28593392 -19.07716265 190.28593392 -22.58984375 190.28100586 C-24.06030683 190.30167816 -25.53056542 190.34359849 -27 190.40234375 C-28.18251343 190.42347733 -28.18251343 190.42347733 -29.38891602 190.44503784 C-31.07453623 190.4751855 -32.76002985 190.51326065 -34.4453125 190.5585022 C-62.29035504 191.26599226 -87.38858846 189.13218334 -108.71875 169.05078125 C-116.86403571 160.83761816 -121.66438625 152.24530621 -126.0625 141.6875 C-126.41441406 140.86121094 -126.76632813 140.03492188 -127.12890625 139.18359375 C-129.53037952 132.88407691 -129.76287333 126.37227443 -130.0625 119.6875 C-130.84238281 119.61660156 -131.62226563 119.54570312 -132.42578125 119.47265625 C-137.4012678 118.3984642 -141.67963288 116.32783095 -146.25 114.125 C-147.65403076 113.44945068 -147.65403076 113.44945068 -149.08642578 112.76025391 C-159.04893129 107.85955349 -168.78135624 102.16810136 -175.0625 92.6875 C-176.1875 89.375 -176.1875 89.375 -176.0625 86.6875 C-174.01055638 83.30782815 -170.74483811 82.64085615 -167.0625 81.6875 C-163.10180117 81.39141512 -159.15759578 81.4034232 -155.1875 81.4375 C-154.07068848 81.44354248 -152.95387695 81.44958496 -151.80322266 81.45581055 C-143.07835381 81.55975303 -134.67199826 82.20023689 -126.0625 83.6875 C-125.41603516 83.79465332 -124.76957031 83.90180664 -124.10351562 84.01220703 C-115.01044242 85.54182047 -106.11970432 87.27682732 -98.375 92.5 C-96.44482405 95.71695991 -97.50336337 98.00743079 -98.0625 101.6875 C-99.44584074 123.46580328 -94.4678667 144.11676494 -80.5 161.3125 C-69.70137251 172.95444888 -53.41102512 179.06546029 -38.0625 181.6875 C-36.7425 181.6875 -35.4225 181.6875 -34.0625 181.6875 C-35.18785156 181.06875 -35.18785156 181.06875 -36.3359375 180.4375 C-55.564098 169.58836158 -68.28332964 156.60724094 -75.109375 135.44140625 C-76.9793686 128.09374272 -77.33072186 120.99261578 -77.375 113.4375 C-77.38063965 112.52677734 -77.3862793 111.61605469 -77.39208984 110.67773438 C-77.19796987 92.52916222 -70.24996877 75.26360596 -57.61474609 62.18945312 C-50.62012399 55.45132361 -42.77994223 50.63804619 -33.42578125 47.921875 C-30.134595 46.20284218 -29.58904317 44.33769348 -28.1875 40.9375 C-27.67960938 39.76574219 -27.17171875 38.59398437 -26.6484375 37.38671875 C-26.38772461 36.77489746 -26.12701172 36.16307617 -25.85839844 35.53271484 C-11.66118095 2.61781613 -11.66118095 2.61781613 0 0 Z M66.9375 55.9375 C64.74144277 58.39035076 64.74144277 58.39035076 64.9375 60.6875 C66.58238294 62.37566933 68.25087542 64.04103315 69.9375 65.6875 C72.42136059 69.41329089 72.3179212 71.27461402 71.9375 75.6875 C70.78110194 78.00029611 69.76340172 79.86159828 67.9375 81.6875 C61.57970183 82.15844801 61.57970183 82.15844801 59.0625 80.3125 C56.9023291 77.19225315 56.80230495 75.14207153 56.8125 71.375 C56.80992187 70.43011719 56.80734375 69.48523438 56.8046875 68.51171875 C56.932137 65.80154264 57.33153774 63.32776415 57.9375 60.6875 C51.6987276 57.91471227 44.14356095 57.39063121 37.59375 59.41015625 C35.57653523 60.36833327 33.78101387 61.42942634 31.9375 62.6875 C30.90625 63.38875 29.875 64.09 28.8125 64.8125 C24.868061 68.28013868 22.18352723 72.98836502 19.9375 77.6875 C19.9375 78.6775 19.9375 79.6675 19.9375 80.6875 C20.48019531 80.85765625 21.02289063 81.0278125 21.58203125 81.203125 C24.78059317 82.28660183 27.37642457 83.196559 29.9375 85.4375 C31.3837066 88.69146485 31.31440428 91.16972676 30.9375 94.6875 C29.875 97.125 29.875 97.125 27.9375 98.6875 C24.09751778 99.24604287 21.92167144 99.37095239 18.6875 97.125 C16.51194873 94.09476788 15.27622764 91.16819187 13.9375 87.6875 C9.17390108 88.8083468 7.03258189 91.44994611 4.36328125 95.3125 C-1.5731259 105.20109054 -1.53406934 114.51392659 -1.0625 125.6875 C-0.17498047 125.81705078 -0.17498047 125.81705078 0.73046875 125.94921875 C6.18218858 126.91861102 9.59599702 127.94472157 12.9375 132.6875 C13.65338388 136.50554737 13.22805839 138.15287255 11.375 141.5625 C8.9375 143.6875 8.9375 143.6875 5.4375 144.25 C1.36618025 143.59568075 0.35058228 142.96239738 -2.0625 139.6875 C-3.12261943 137.71870677 -4.13720849 135.72314133 -5.0625 133.6875 C-13.38950102 141.29789164 -18.43095325 152.63778504 -19.30859375 163.82421875 C-19.64798151 173.17280898 -18.53942623 182.40287983 -13.296875 190.37109375 C-9.86942798 193.92437361 -6.58694257 195.51930665 -1.66608429 196.06223011 C-0.41571129 196.06206237 0.83466171 196.06189463 2.1229248 196.0617218 C2.82402862 196.06569621 3.52513244 196.06967061 4.24748182 196.07376546 C6.58642105 196.08335391 8.92475004 196.07158997 11.26367188 196.05981445 C12.94672368 196.06224427 14.62977404 196.06596543 16.31282043 196.07087708 C20.88726171 196.08028681 25.46148887 196.07084747 30.03591347 196.05754495 C34.86146678 196.04617395 39.68701037 196.05034383 44.51257324 196.05229187 C52.65018156 196.05317577 60.78770677 196.04209687 68.92529297 196.02368164 C78.23028294 196.0027401 87.53514927 195.99895451 96.84015799 196.0052436 C105.86998158 196.01102712 114.89976315 196.00517357 123.92958069 195.99407005 C127.72755235 195.98951744 131.52549749 195.98850862 135.32347107 195.9906559 C154.46811774 195.99687551 173.57650028 195.78282452 192.70117188 194.85620117 C193.47982636 194.82170699 194.25848085 194.7872128 195.06073093 194.75167334 C216.00948024 194.15743368 216.00948024 194.15743368 233.90234375 184.79296875 C239.22953918 179.04291006 239.22953918 179.04291006 240.9375 171.6875 C239.968125 171.378125 238.99875 171.06875 238 170.75 C234.9375 169.6875 234.9375 169.6875 233.9375 168.6875 C233.6875 165.25 233.6875 165.25 233.9375 161.6875 C236.9375 159.6875 236.9375 159.6875 239.9375 159.6875 C242.9375 160.6875 242.9375 160.6875 244.8125 163.75 C245.18375 164.719375 245.555 165.68875 245.9375 166.6875 C249.21147794 165.97813811 251.21001122 165.52150107 253.9375 163.6875 C255.90380847 160.19247194 256.91672437 156.55032989 257.9375 152.6875 C258.35410104 151.29164708 258.7707551 149.89580998 259.1875 148.5 C259.435 147.571875 259.6825 146.64375 259.9375 145.6875 C253.69148427 145.33158179 249.50709784 146.23649054 243.875 148.875 C243.20662109 149.16697266 242.53824219 149.45894531 241.84960938 149.75976562 C233.19859464 153.6601936 233.19859464 153.6601936 227.37109375 160.7734375 C226.87802734 162.40152344 226.87802734 162.40152344 226.375 164.0625 C224.48405983 169.51285696 222.65485102 174.13463361 217.9375 177.6875 C215.04951933 178.52057135 212.89675143 178.6875 209.9375 178.6875 C209.6075 177.3675 209.2775 176.0475 208.9375 174.6875 C208.2775 174.6875 207.6175 174.6875 206.9375 174.6875 C206.339375 175.3475 205.74125 176.0075 205.125 176.6875 C202.9375 178.6875 202.9375 178.6875 200.1875 178.9375 C199.445 178.855 198.7025 178.7725 197.9375 178.6875 C196.9475 176.2125 196.9475 176.2125 195.9375 173.6875 C195.380625 174.038125 194.82375 174.38875 194.25 174.75 C191.36581368 175.91926473 189.86463788 175.63684202 186.9375 174.6875 C185.49542059 171.80334117 185.84355113 169.27028472 185.875 166.0625 C185.88402344 164.87398438 185.89304687 163.68546875 185.90234375 162.4609375 C185.91974609 161.08808594 185.91974609 161.08808594 185.9375 159.6875 C187.2575 159.6875 188.5775 159.6875 189.9375 159.6875 C189.9375 163.6475 189.9375 167.6075 189.9375 171.6875 C195.04615093 167.28838392 198.25069704 162.15935038 199.2890625 155.3984375 C199.44259018 153.00795455 199.44259018 153.00795455 198.9375 149.6875 C196.1633729 147.48025993 196.1633729 147.48025993 193.25 147.5 C185.50415438 150.27681258 181.23655085 158.32002678 177.65234375 165.328125 C176.77805096 168.21376898 177.04514884 169.82823869 177.9375 172.6875 C178.5975 173.6775 179.2575 174.6675 179.9375 175.6875 C180.31228243 179.21045483 180.34877245 181.03631863 178.4375 184.0625 C177.695 184.866875 177.695 184.866875 176.9375 185.6875 C172.0625 184.8125 172.0625 184.8125 170.9375 183.6875 C170.86544489 182.00141034 170.85363932 180.31249341 170.875 178.625 C170.88402344 177.70589844 170.89304687 176.78679687 170.90234375 175.83984375 C170.91974609 174.77443359 170.91974609 174.77443359 170.9375 173.6875 C167.13206786 174.23968683 164.77965431 175.23814638 161.6875 177.5 C150.80544332 185.00052502 139.83922146 186.87339703 126.8125 187.3125 C125.85601562 187.35117188 124.89953125 187.38984375 123.9140625 187.4296875 C121.58871801 187.52270128 119.26335665 187.60853771 116.9375 187.6875 C116.9375 186.0375 116.9375 184.3875 116.9375 182.6875 C117.91021851 182.72677612 117.91021851 182.72677612 118.90258789 182.7668457 C135.62998047 183.35182313 149.99795835 183.34643711 163.59375 172.23828125 C165.9375 170.6875 165.9375 170.6875 169.46875 169.92578125 C173.37845751 168.53008612 174.27373513 167.2617139 176.04321289 163.58349609 C176.33832764 162.91656738 176.63344238 162.24963867 176.9375 161.5625 C179.59712406 156.01673277 182.22711252 151.64729227 186.78515625 147.3984375 C188.20134501 145.6801479 188.20134501 145.6801479 187.73046875 143.1640625 C185.95975473 137.63385221 182.20326891 133.5042406 177.9375 129.6875 C177.2775 129.6875 176.6175 129.6875 175.9375 129.6875 C175.97875 128.45 176.02 127.2125 176.0625 125.9375 C175.99629196 111.76898008 171.83014815 96.53777975 163.9375 84.6875 C163.43605469 83.92953125 162.93460938 83.1715625 162.41796875 82.390625 C156.78813698 74.53259284 149.1354038 68.75346793 139.9375 65.6875 C137.14409843 65.43359778 137.14409843 65.43359778 134.9375 65.6875 C134.92332031 66.25597656 134.90914062 66.82445312 134.89453125 67.41015625 C134.52217109 73.43836532 133.13365134 77.29212486 128.9375 81.6875 C126.19023643 83.88531086 124.97128057 83.68868528 121.375 83.5625 C117.9375 82.6875 117.9375 82.6875 116.25 80.94140625 C113.96578401 77.01880914 114.3297419 73.08480857 114.9375 68.6875 C117.40969451 63.51836602 121.77307455 62.25773069 126.890625 60.38671875 C127.90382813 60.04060547 127.90382813 60.04060547 128.9375 59.6875 C126.21652529 52.71500232 121.08951705 48.57871023 114.8125 44.8125 C98.11821148 38.27995232 78.64870098 42.48766134 66.9375 55.9375 Z " fill="#060607" transform="translate(236.0625,67.3125)"/>
<path d="M0 0 C-0.47656412 1.79236067 -0.95633498 3.58386897 -1.4375 5.375 C-1.70433594 6.37273437 -1.97117187 7.37046875 -2.24609375 8.3984375 C-3 11 -3 11 -4 13 C-4.64507919 18.20671061 -4.9173523 21.81709835 -1.625 26.0625 C4.36855062 30.48631117 11.74779598 29.30108895 18.94677734 29.35009766 C20.72165084 29.36660058 22.49645944 29.39381542 24.27099609 29.43212891 C26.83986632 29.48727546 29.4071777 29.5088325 31.9765625 29.5234375 C32.76020172 29.54610687 33.54384094 29.56877625 34.35122681 29.59213257 C39.73412859 29.57177848 42.86302932 28.29536055 47.17050171 25.0589447 C49.92883814 23.4623727 52.02934477 23.92758115 55.03515625 24.62695312 C55.68355469 24.81193359 56.33195312 24.99691406 57 25.1875 C57.67933594 25.35314453 58.35867188 25.51878906 59.05859375 25.68945312 C60.71315688 26.09726798 62.35790376 26.54457487 64 27 C64.33 27.99 64.66 28.98 65 30 C60.87829138 31.50244918 57.11288913 32.36234941 52.75 32.78125 C51.52506836 32.89992432 50.30013672 33.01859863 49.03808594 33.14086914 C47.69216014 33.26173024 46.34612664 33.38139669 45 33.5 C44.29331177 33.56347626 43.58662354 33.62695251 42.85852051 33.69235229 C25.97863879 35.19589081 9.09546913 36.21166214 -7.83728027 36.87567139 C-9.99791718 36.96060746 -12.15847834 37.047487 -14.31896973 37.13604736 C-62.15641783 39.0857016 -110.00544352 39.19014136 -157.87441349 39.18744946 C-160.22736962 39.18749952 -162.58032496 39.18809324 -164.93328094 39.18888092 C-197.23487276 39.19917231 -229.53085716 39.1245048 -261.828125 38.546875 C-262.93989357 38.52730932 -264.05166214 38.50774364 -265.19712067 38.48758507 C-302.9724538 37.80290001 -340.93296645 36.55288215 -378.5625 33 C-379.33625977 32.92910156 -380.11001953 32.85820312 -380.90722656 32.78515625 C-385.49149112 32.31242341 -389.62588721 31.37948367 -394 30 C-394 29.34 -394 28.68 -394 28 C-389.78428727 26.45599968 -385.92085707 25.61993184 -381.45703125 25.18359375 C-380.21759766 25.05919922 -378.97816406 24.93480469 -377.70117188 24.80664062 C-376.41791016 24.68482422 -375.13464844 24.56300781 -373.8125 24.4375 C-372.54857422 24.31181641 -371.28464844 24.18613281 -369.98242188 24.05664062 C-367.47981195 23.80935739 -364.97671516 23.56694942 -362.47314453 23.32958984 C-360.3588258 23.12894804 -358.24503504 22.92248529 -356.13232422 22.70556641 C-347.35002628 21.83073246 -338.55650854 21.64177127 -329.73828125 21.39453125 C-324.40581945 21.23157931 -319.11172755 21.05475659 -313.8046875 20.49609375 C-306.28964644 19.7584295 -298.75542048 19.6662132 -291.20947266 19.5949707 C-289.47554865 19.57318609 -287.74174028 19.53884862 -286.00830078 19.49243164 C-283.47640227 19.42557734 -280.94671726 19.39802888 -278.4140625 19.37890625 C-277.25772812 19.33716026 -277.25772812 19.33716026 -276.07803345 19.29457092 C-273.88134766 19.30297852 -273.88134766 19.30297852 -270 20 C-267.34912109 22.85131836 -267.34912109 22.85131836 -265 26 C-260.3938806 28.88011812 -256.86646585 29.37349833 -251.48153687 29.36749268 C-250.74479252 29.37076152 -250.00804818 29.37403036 -249.24897826 29.37739825 C-246.78995955 29.38465723 -244.33154058 29.37054165 -241.87255859 29.35644531 C-240.10431823 29.35723665 -238.33607803 29.35933532 -236.56784058 29.36264038 C-231.7647332 29.36777459 -226.96184018 29.35422784 -222.15876722 29.33711338 C-217.10565705 29.32202557 -212.0525491 29.32324975 -206.99942017 29.32244873 C-198.49029926 29.31875379 -189.98125886 29.30379333 -181.47216797 29.28125 C-170.63499093 29.25259269 -159.7978794 29.24204407 -148.96066856 29.2375679 C-139.56838346 29.23354377 -130.17611194 29.22103423 -120.78383684 29.20722103 C-117.80692482 29.20317056 -114.83001325 29.20022019 -111.85309982 29.19742584 C-85.41368272 29.17312306 -85.41368272 29.17312306 -58.98291016 28.56152344 C-57.8990119 28.52464039 -56.81511364 28.48775734 -55.69836998 28.44975662 C-32.19441645 27.55624073 -32.19441645 27.55624073 -12.5625 15.8125 C-9.66337037 12.01805093 -7.92640803 7.67348281 -6.17578125 3.2578125 C-4.64820735 0.32446462 -3.24597293 0 0 0 Z " fill="#BFBCE5" transform="translate(487,237)"/>
<path d="M0 0 C2.5468645 1.34075025 4.67683994 2.97226055 6.7734375 4.93359375 C9.5580081 3.8366417 12.18679464 2.71426139 14.8359375 1.30859375 C20.69648774 -1.1811825 27.54523403 -1.11670907 33.546875 0.8359375 C35.68505829 1.7836181 37.73855008 2.78254632 39.7734375 3.93359375 C39.7734375 4.92359375 39.7734375 5.91359375 39.7734375 6.93359375 C36.36411853 8.07003341 35.77008294 7.80107139 32.5859375 6.49609375 C31.87050781 6.20863281 31.15507812 5.92117187 30.41796875 5.625 C29.60392578 5.28275391 29.60392578 5.28275391 28.7734375 4.93359375 C28.6290625 5.73796875 28.4846875 6.54234375 28.3359375 7.37109375 C27.7734375 9.93359375 27.7734375 9.93359375 26.7734375 10.93359375 C24.43399014 10.6462932 22.0995232 10.31422596 19.7734375 9.93359375 C19.2784375 7.95359375 19.2784375 7.95359375 18.7734375 5.93359375 C14.8134375 7.91359375 14.8134375 7.91359375 10.7734375 9.93359375 C14.13212443 14.23691138 17.70280745 17.73886924 21.90625 21.22265625 C24.49969631 23.59907777 26.51616095 25.54631823 27.171875 29.08203125 C27.11909253 34.09636611 26.66018173 37.65324886 23.7734375 41.93359375 C18.22225498 47.19260877 13.02825593 48.40104959 5.56640625 48.25 C0.17367931 47.63907569 -3.73540871 45.70433888 -7.2265625 41.55859375 C-8.45631855 38.33048412 -8.79740706 36.35866109 -8.2265625 32.93359375 C-6.1640625 29.99609375 -6.1640625 29.99609375 -3.2265625 27.93359375 C0.5859375 28.12109375 0.5859375 28.12109375 3.7734375 28.93359375 C3.7734375 30.25359375 3.7734375 31.57359375 3.7734375 32.93359375 C0.7734375 33.93359375 0.7734375 33.93359375 -2.2265625 33.93359375 C-2.72897572 36.26318845 -2.72897572 36.26318845 -2.2265625 38.93359375 C0.91146864 41.83627255 3.54349998 43.19213485 7.7734375 43.37109375 C11.63797249 43.18601066 14.41396516 41.85329223 17.7734375 39.93359375 C18.4334375 39.93359375 19.0934375 39.93359375 19.7734375 39.93359375 C21.13039973 35.86270705 21.28658854 32.18972881 20.7734375 27.93359375 C18.73135658 24.20457643 15.80542837 22.18340092 12.4609375 19.68359375 C8.2712061 16.54818621 5.36153955 13.1303525 2.37890625 8.8515625 C0.65829586 6.79604011 -0.76826204 5.94144361 -3.2265625 4.93359375 C-3.5565625 6.25359375 -3.8865625 7.57359375 -4.2265625 8.93359375 C-7.6015625 9.55859375 -7.6015625 9.55859375 -11.2265625 9.93359375 C-11.8865625 9.27359375 -12.5465625 8.61359375 -13.2265625 7.93359375 C-13.2265625 6.61359375 -13.2265625 5.29359375 -13.2265625 3.93359375 C-21.77490335 3.28452884 -21.77490335 3.28452884 -29.2265625 6.93359375 C-29.8865625 5.61359375 -30.5465625 4.29359375 -31.2265625 2.93359375 C-22.97359853 -3.98105174 -9.94969648 -3.98369074 0 0 Z " fill="#101010" transform="translate(356.2265625,181.06640625)"/>
<path d="M0 0 C4.4803337 5.05204295 6.43683193 11.9025756 7.625 18.4375 C6.69786175 22.23876682 4.23141401 22.99652331 1 25 C-0.41190564 27.60437233 -0.41190564 27.60437233 -1 30 C-1.556875 29.855625 -2.11375 29.71125 -2.6875 29.5625 C-7.59973911 28.32333267 -7.59973911 28.32333267 -12.625 28.25 C-13.40875 28.1675 -14.1925 28.085 -15 28 C-17.292171 24.69832364 -18.83797826 21.25134135 -20.25 17.5 C-20.60578125 16.5821875 -20.9615625 15.664375 -21.328125 14.71875 C-22.08452789 11.65795689 -22.07523531 9.95815913 -21 7 C-19.43359375 5.7421875 -19.43359375 5.7421875 -17.4375 4.875 C-16.35855469 4.39933594 -16.35855469 4.39933594 -15.2578125 3.9140625 C-14.51273437 3.61242187 -13.76765625 3.31078125 -13 3 C-12.29617188 2.69835937 -11.59234375 2.39671875 -10.8671875 2.0859375 C-3.84829261 -0.76965852 -3.84829261 -0.76965852 0 0 Z " fill="#09090A" transform="translate(489,157)"/>
<path d="M0 0 C3.78209416 7.05990911 3.23168555 14.07578111 3.25 21.9375 C3.25167175 22.60595947 3.25334351 23.27441895 3.25506592 23.96313477 C3.25712347 37.70925075 2.80220942 51.97139706 -2 65 C-2.66 65 -3.32 65 -4 65 C-4.31319144 63.60432165 -4.62551788 62.20844918 -4.9375 60.8125 C-5.11152344 60.03519531 -5.28554687 59.25789063 -5.46484375 58.45703125 C-5.64144531 57.64621094 -5.81804687 56.83539063 -6 56 C-6.17184814 55.23107422 -6.34369629 54.46214844 -6.52075195 53.66992188 C-9.56245176 36.72441546 -7.0351339 17.03309668 -1 1 C-0.67 0.67 -0.34 0.34 0 0 Z " fill="#BEBCE2" transform="translate(237,74)"/>
<path d="M0 0 C0.99 0.99 0.99 0.99 2 2 C-4.32907651 4.35061561 -9.99972302 4.38426734 -16.6875 4.375 C-17.88834229 4.37338867 -19.08918457 4.37177734 -20.32641602 4.37011719 C-30.62073835 4.22995555 -40.1237449 2.83975594 -50 0 C-51.87751953 -0.53753906 -51.87751953 -0.53753906 -53.79296875 -1.0859375 C-59.47724571 -2.85852563 -59.47724571 -2.85852563 -62 -4 C-62.33 -4.66 -62.66 -5.32 -63 -6 C-45.57191373 -11.80936209 -16.81240122 -7.53659365 0 0 Z " fill="#BFBCE2" transform="translate(130,161)"/>
<path d="M0 0 C2.74209752 0.64944415 3.75996383 1.2674486 5.375 3.5625 C5.375 4.5525 5.375 5.5425 5.375 6.5625 C6.365 5.9025 7.355 5.2425 8.375 4.5625 C11.43103838 4.24416267 13.50835219 4.10028783 16.25 5.5625 C18.10518114 8.86059981 18.17451654 11.96137179 17.375 15.5625 C14.62003348 20.65868349 10.75825591 23.32230973 5.40234375 25.25 C2.7077461 25.66535224 0.96029334 25.45298993 -1.625 24.5625 C-5.16105845 20.62758029 -7.96061971 15.6631503 -8.3125 10.3125 C-7.37495117 5.1985973 -5.54491436 1.18819593 0 0 Z " fill="#050406" transform="translate(527.625,129.4375)"/>
<path d="M0 0 C0.66 0.33 1.32 0.66 2 1 C1.39784668 1.82854492 0.79569336 2.65708984 0.17529297 3.51074219 C-2.17567181 7.04707496 -3.52220482 10.80259458 -4.8046875 14.828125 C-5.05115021 15.57600281 -5.29761292 16.32388062 -5.55154419 17.09442139 C-6.33460344 19.47690831 -7.10509145 21.86323505 -7.875 24.25 C-8.38326659 25.80496494 -8.89237522 27.3596549 -9.40234375 28.9140625 C-10.16749895 31.24685422 -10.93037093 33.58024004 -11.6852417 35.91638184 C-12.98656956 39.94038014 -14.32130033 43.94805823 -15.71972656 47.93945312 C-16.13751877 49.14586456 -16.13751877 49.14586456 -16.56375122 50.37664795 C-17.09305817 51.90029623 -17.63064826 53.42110342 -18.17819214 54.93829346 C-20.15681216 60.67175015 -20.89307734 66.08413331 -19 72 C-23.75 71.25 -23.75 71.25 -26 69 C-27.15846807 62.2561519 -25.0965853 56.33890558 -22.67578125 50.13671875 C-22.3325029 49.22348343 -21.98922455 48.31024811 -21.63554382 47.36933899 C-20.54162062 44.46995594 -19.42726334 41.57892496 -18.3125 38.6875 C-17.58267246 36.7589595 -16.85414537 34.82992635 -16.12695312 32.90039062 C-14.11745845 27.5872964 -12.07205639 22.28899137 -10 17 C-9.73424164 16.32056335 -9.46848328 15.64112671 -9.19467163 14.94110107 C-4.83111106 3.86488885 -4.83111106 3.86488885 0 0 Z " fill="#EAEAEA" transform="translate(513,190)"/>
<path d="M0 0 C2.625 0.375 2.625 0.375 5 1 C4.1875 2.9375 4.1875 2.9375 3 5 C2.01 5.33 1.02 5.66 0 6 C0.495 6.78375 0.99 7.5675 1.5 8.375 C3 11 3 11 3 13 C3.61875 13.309375 4.2375 13.61875 4.875 13.9375 C6.25 14.625 7.625 15.3125 9 16 C11.204364 16.22950319 13.41392173 16.41075933 15.625 16.5625 C16.81351562 16.64628906 18.00203125 16.73007813 19.2265625 16.81640625 C20.59941406 16.90728516 20.59941406 16.90728516 22 17 C22.495 18.98 22.495 18.98 23 21 C18.22438422 23.38780789 12.14201202 22.36163714 7.25 20.8125 C2.57217504 18.203713 -0.98656631 15.52015053 -4 11 C-4 10.01 -4 9.02 -4 8 C-6.64 8 -9.28 8 -12 8 C-11.67 6.68 -11.34 5.36 -11 4 C-10.37351562 3.87882813 -9.74703125 3.75765625 -9.1015625 3.6328125 C-8.28429687 3.46523437 -7.46703125 3.29765625 -6.625 3.125 C-5.81289063 2.96257812 -5.00078125 2.80015625 -4.1640625 2.6328125 C-1.81326077 2.13341068 -1.81326077 2.13341068 0 0 Z " fill="#111111" transform="translate(335,219)"/>
<path d="M0 0 C2.625 0.3125 2.625 0.3125 4.4375 1.875 C6.44567529 5.99704401 6.18411906 9.41570361 4.8984375 13.77734375 C2.92092045 19.12307072 0.72101269 23.32151328 -3.375 27.3125 C-4.365 27.3125 -5.355 27.3125 -6.375 27.3125 C-6.51711602 23.75959947 -6.57053853 20.8786979 -5.40234375 17.49609375 C-4.29789244 14.07355453 -4.00499788 11.08373704 -3.8125 7.5 C-3.42217688 0.45028643 -3.42217688 0.45028643 0 0 Z " fill="#EFEFEF" transform="translate(455.375,214.6875)"/>
<path d="M0 0 C2.9375 0.25 2.9375 0.25 6 1 C8.55146677 4.82720015 8.43512537 6.4311836 8 11 C6.16890706 17.2554094 3.68588803 22.43426295 -1 27 C-1.99 27 -2.98 27 -4 27 C-4.23829663 22.5517962 -4.28534641 19.23213493 -2.5 15.125 C-0.75453597 11.02234389 -0.79016974 7.41462732 -0.9921875 3.00390625 C-0.99605469 2.01197266 -0.99605469 2.01197266 -1 1 C-0.67 0.67 -0.34 0.34 0 0 Z " fill="#F1F1F1" transform="translate(440,215)"/>
<path d="M0 0 C1.32 0.33 2.64 0.66 4 1 C4 2.65 4 4.3 4 6 C5.98 6 7.96 6 10 6 C11.21673658 9.65020975 10.98572595 11.03892922 9.625 14.75 C8 18 8 18 7 19 C5.31391034 19.07205511 3.62499341 19.08386068 1.9375 19.0625 C1.01839844 19.05347656 0.09929688 19.04445313 -0.84765625 19.03515625 C-1.55792969 19.02355469 -2.26820313 19.01195313 -3 19 C-3.31461385 11.90370975 -3.44572039 6.31715405 0 0 Z " fill="#111011" transform="translate(512,82)"/>
<path d="M0 0 C0.99 0.33 1.98 0.66 3 1 C3.6875 3.0625 3.6875 3.0625 4 5 C5.98 5 7.96 5 10 5 C10.33 5.99 10.66 6.98 11 8 C10.01 8.66 9.02 9.32 8 10 C7.26393501 13.56769552 7.26393501 13.56769552 7 17 C5.4221875 16.690625 5.4221875 16.690625 3.8125 16.375 C0.00375113 16.00036896 -1.66835752 16.28369933 -5 18 C-4.9071875 16.3603125 -4.9071875 16.3603125 -4.8125 14.6875 C-4.62756763 11.08247389 -4.62756763 11.08247389 -6.5 9.1875 C-6.995 8.795625 -7.49 8.40375 -8 8 C-8 7.34 -8 6.68 -8 6 C-7.05125 5.7525 -6.1025 5.505 -5.125 5.25 C-1.91306809 4.3142923 -1.91306809 4.3142923 -0.625 1.875 C-0.41875 1.25625 -0.2125 0.6375 0 0 Z " fill="#0A0A0C" transform="translate(487,119)"/>
<path d="M0 0 C0.27338445 5.37656087 0.38994303 8.56699758 -3 13 C-5 15 -5 15 -7.5 15.3125 C-8.7375 15.1578125 -8.7375 15.1578125 -10 15 C-12.5099972 11.23500419 -12.61476744 9.45706394 -12 5 C-8.23307595 0.78463262 -5.65011045 -0.6726322 0 0 Z " fill="#F6F6F6" transform="translate(366,132)"/>
<path d="M0 0 C-0.19335938 0.67804688 -0.38671875 1.35609375 -0.5859375 2.0546875 C-2.34315543 8.33543673 -3.79248722 14.59089369 -5 21 C-8.96 21 -12.92 21 -17 21 C-15.63875 19.2365625 -15.63875 19.2365625 -14.25 17.4375 C-10.86820474 12.92312236 -7.90524106 8.44947582 -5.9375 3.125 C-5.628125 2.42375 -5.31875 1.7225 -5 1 C-2 0 -2 0 0 0 Z " fill="#E9E7ED" transform="translate(487,237)"/>
<path d="M0 0 C14.19 0 28.38 0 43 0 C42.67 0.66 42.34 1.32 42 2 C37.38 2 32.76 2 28 2 C27.67 3.32 27.34 4.64 27 6 C19.74 6 12.48 6 5 6 C5 5.01 5 4.02 5 3 C2.525 2.01 2.525 2.01 0 1 C0 0.67 0 0.34 0 0 Z " fill="#C9C5EC" transform="translate(487,266)"/>
<path d="M0 0 C4.455 0.99 4.455 0.99 9 2 C8.814375 2.928125 8.62875 3.85625 8.4375 4.8125 C7.75876119 8.01343771 7.75876119 8.01343771 9 11 C8.030625 11.12375 7.06125 11.2475 6.0625 11.375 C5.051875 11.58125 4.04125 11.7875 3 12 C2.67 12.66 2.34 13.32 2 14 C1.34 14 0.68 14 0 14 C0 12.35 0 10.7 0 9 C-1.32 8.67 -2.64 8.34 -4 8 C-3.67 7.01 -3.34 6.02 -3 5 C-2.34 4.67 -1.68 4.34 -1 4 C-0.67 2.68 -0.34 1.36 0 0 Z " fill="#EAE8EE" transform="translate(479,165)"/>
<path d="M0 0 C5.72911964 3.81941309 5.72911964 3.81941309 6.46875 7.04296875 C6.5 9.1875 6.5 9.1875 6 13 C5.34 13.66 4.68 14.32 4 15 C2 14.8125 2 14.8125 0 14 C-2.46751239 10.29873141 -2.30721156 8.37776468 -2 4 C-1 1.5625 -1 1.5625 0 0 Z " fill="#F2F2F2" transform="translate(298,131)"/>
<path d="M0 0 C4.2002771 0.90523213 7.57966461 2.90282094 11.25 5.0625 C12.22453125 5.62807617 12.22453125 5.62807617 13.21875 6.20507812 C14.81505091 7.13234115 16.40787529 8.06558456 18 9 C18 9.33 18 9.66 18 10 C10.25798419 9.61422945 3.32328775 8.57611228 -4 6 C-4 5.34 -4 4.68 -4 4 C-3.01 3.67 -2.02 3.34 -1 3 C-0.67 2.01 -0.34 1.02 0 0 Z " fill="#E4E3E7" transform="translate(186,240)"/>
<path d="M0 0 C2.6875 0.3125 2.6875 0.3125 5.0625 1.9375 C6.6875 4.3125 6.6875 4.3125 6.4375 7.5625 C6.19 8.47 5.9425 9.3775 5.6875 10.3125 C4.3675 10.6425 3.0475 10.9725 1.6875 11.3125 C-1.19579583 8.057166 -2.94581529 5.71271656 -3.3125 1.3125 C-2.3125 0.3125 -2.3125 0.3125 0 0 Z " fill="#EDEDED" transform="translate(238.3125,196.6875)"/>
<path d="M0 0 C3.46265264 0.3147866 5.58585959 0.70266842 8.4375 2.75 C10 5 10 5 9.75 7.75 C9.5025 8.4925 9.255 9.235 9 10 C7.25 10.75 7.25 10.75 5 11 C1.64726453 8.70098139 1.0542595 7.2712975 0.25 3.25 C0.1675 2.1775 0.085 1.105 0 0 Z " fill="#E5E5E5" transform="translate(254,152)"/>
<path d="M0 0 C1.32 0 2.64 0 4 0 C4 3.63 4 7.26 4 11 C2.68 10.67 1.36 10.34 0 10 C0 6.7 0 3.4 0 0 Z " fill="#1D1C21" transform="translate(504,90)"/>
<path d="M0 0 C2.31152042 4.31483812 3.13445355 7.85715874 3.0625 12.75 C3.05347656 13.54921875 3.04445312 14.3484375 3.03515625 15.171875 C3.01775391 16.07679687 3.01775391 16.07679687 3 17 C2.34 17 1.68 17 1 17 C0.92652344 15.93458984 0.92652344 15.93458984 0.8515625 14.84765625 C0.73941406 13.46900391 0.73941406 13.46900391 0.625 12.0625 C0.55539063 11.14597656 0.48578125 10.22945312 0.4140625 9.28515625 C0.20910156 8.15400391 0.20910156 8.15400391 0 7 C-0.66 6.67 -1.32 6.34 -2 6 C-1.125 1.125 -1.125 1.125 0 0 Z " fill="#B9B8D3" transform="translate(237,74)"/>
<path d="M0 0 C4.455 0.99 4.455 0.99 9 2 C8.34 3.32 7.68 4.64 7 6 C6.67 5.01 6.34 4.02 6 3 C5.2575 3.495 4.515 3.99 3.75 4.5 C1 6 1 6 -3 6 C-2.34 5.34 -1.68 4.68 -1 4 C-0.67 2.68 -0.34 1.36 0 0 Z " fill="#DDDBDF" transform="translate(479,165)"/>
<path d="M0 0 C0.66 0.33 1.32 0.66 2 1 C1.67 2.32 1.34 3.64 1 5 C-1.31 5.66 -3.62 6.32 -6 7 C-4.6875 4.0625 -4.6875 4.0625 -3 1 C-2.01 0.67 -1.02 0.34 0 0 Z " fill="#100F16" transform="translate(463,256)"/>
<path d="M0 0 C1.74991334 -0.02715383 3.49994945 -0.04646551 5.25 -0.0625 C6.71179688 -0.07990234 6.71179688 -0.07990234 8.203125 -0.09765625 C10.65758678 -0.01195577 12.66168914 0.29293934 15 1 C15 1.66 15 2.32 15 3 C9.9697924 2.47462276 4.98114761 1.89405214 0 1 C0 0.67 0 0.34 0 0 Z " fill="#D2D0D3" transform="translate(104,150)"/>
<path d="M0 0 C3.49900021 0.76978005 5.456333 1.456333 8 4 C4.04 3.67 0.08 3.34 -4 3 C-2.68 2.01 -1.36 1.02 0 0 Z " fill="#D5D5D6" transform="translate(196,246)"/>
<path d="M0 0 C2.97 0.495 2.97 0.495 6 1 C4 3 4 3 0.9609375 3.1953125 C-0.22242187 3.17210937 -1.40578125 3.14890625 -2.625 3.125 C-3.81351562 3.10695312 -5.00203125 3.08890625 -6.2265625 3.0703125 C-7.14179687 3.04710937 -8.05703125 3.02390625 -9 3 C-9 2.67 -9 2.34 -9 2 C-6.03 2 -3.06 2 0 2 C0 1.34 0 0.68 0 0 Z " fill="#CCCAE7" transform="translate(126,161)"/>
<path d="M0 0 C2 1 2 1 2.8515625 3.28515625 C3.10679687 4.20167969 3.36203125 5.11820313 3.625 6.0625 C3.88539063 6.98160156 4.14578125 7.90070313 4.4140625 8.84765625 C4.60742188 9.55792969 4.80078125 10.26820313 5 11 C4.01 10.67 3.02 10.34 2 10 C1.05078125 7.93359375 1.05078125 7.93359375 0.3125 5.4375 C0.06113281 4.61121094 -0.19023437 3.78492188 -0.44921875 2.93359375 C-0.63097656 2.29550781 -0.81273437 1.65742188 -1 1 C-0.67 0.67 -0.34 0.34 0 0 Z " fill="#D4D2D7" transform="translate(466,168)"/>
<path d="M0 0 C0.99 0.33 1.98 0.66 3 1 C2.67 1.66 2.34 2.32 2 3 C1.34 3 0.68 3 0 3 C-0.33 5.31 -0.66 7.62 -1 10 C-1.99 9.67 -2.98 9.34 -4 9 C-3.34 9 -2.68 9 -2 9 C-2.04125 7.88625 -2.0825 6.7725 -2.125 5.625 C-2 2 -2 2 0 0 Z " fill="#C9C6CC" transform="translate(496,127)"/>
<path d="M0 0 C4.02992782 0.55312735 8.02022924 1.1558062 12 2 C8.00439392 4.83022097 4.57262677 3.76210446 0 3 C0 2.01 0 1.02 0 0 Z " fill="#C6C5CA" transform="translate(472,183)"/>
<path d="M0 0 C-0.66 0.66 -1.32 1.32 -2 2 C-4 2 -6 2 -8 2 C-8.99 2.66 -9.98 3.32 -11 4 C-11 3.01 -11 2.02 -11 1 C-6.8204355 -1.78637633 -4.85331323 -0.79562512 0 0 Z " fill="#D3D1D7" transform="translate(241,67)"/>
<path d="M0 0 C1.98 0.66 3.96 1.32 6 2 C6 2.33 6 2.66 6 3 C3.69 3 1.38 3 -1 3 C-0.67 2.01 -0.34 1.02 0 0 Z " fill="#CBC8DE" transform="translate(536,261)"/>
<path d="M0 0 C0.99 0.33 1.98 0.66 3 1 C3 2.65 3 4.3 3 6 C2.01 6 1.02 6 0 6 C0 4.02 0 2.04 0 0 Z " fill="#D7D7D7" transform="translate(410,243)"/>
</svg>
