<?xml version="1.0" encoding="UTF-8"?>
<svg version="1.1" xmlns="http://www.w3.org/2000/svg" width="163" height="205">
  <defs>
    <filter id="drop-shadow" x="-20%" y="-20%" width="140%" height="140%">
      <feGaussianBlur in="SourceAlpha" stdDeviation="3"/>
      <feOffset dx="2" dy="4"/>
      <feComponentTransfer>
        <feFuncA type="linear" slope="0.3"/>
      </feComponentTransfer>
      <feMerge>
        <feMergeNode/>
        <feMergeNode in="SourceGraphic"/>
      </feMerge>
    </filter>
  </defs>
  <g filter="url(#drop-shadow)">
<path d="M0 0 C36.3 0 72.6 0 110 0 C108.8327312 5.25270958 107.77584097 9.97926052 106.125 15 C102.53834126 26.42664141 100.06293025 38.1931073 97.6796875 49.921875 C97 53 97 53 96.1953125 55.515625 C94.76595082 60.10885467 94.87406999 62.44147139 97.125 66.75 C97.599375 67.5853125 98.07375 68.420625 98.5625 69.28125 C104.88140155 81.23221597 107.39489683 96.59604806 108 110 C108.07927734 111.73830078 108.07927734 111.73830078 108.16015625 113.51171875 C108.51937845 128.2085923 108.51937845 128.2085923 103.3828125 133.7421875 C98.39824662 138.2133217 94.50819138 140.18424839 87.75 140.625 C86.67234375 140.69976562 85.5946875 140.77453125 84.484375 140.8515625 C83.66453125 140.90054688 82.8446875 140.94953125 82 141 C82.34929669 142.83840364 82.73105454 144.67064408 83.125 146.5 C83.43824219 148.03140625 83.43824219 148.03140625 83.7578125 149.59375 C87.20582527 159.04867811 94.0305468 163.41591664 102.3671875 168.33398438 C108.67673937 172.25886555 113.65688039 177.11308506 115.68139648 184.47924805 C116.53799725 189.44270348 115.96013578 192.79851696 113 197 C108.25633365 201.77016728 104.20132465 204.22976274 97.41625977 204.38061523 C84.29361101 204.34558902 76.88118618 200.12809506 67.2421875 191.41015625 C66 190 66 190 66 188 C65.34 188 64.68 188 64 188 C62.51651695 186.03022997 61.18615512 184.0816563 59.875 182 C59.48046631 181.3822168 59.08593262 180.76443359 58.67944336 180.12792969 C55.25948216 174.65544533 52.34031511 168.97776096 49.56396484 163.15625 C48.24418228 160.39952402 47.17919083 158.17919083 45 156 C44.46375 156.763125 43.9275 157.52625 43.375 158.3125 C40.02283471 162.10573967 37.35002722 163.66040069 32.296875 164.390625 C23.0783036 164.91064698 17.44602018 161.96113543 10.671875 155.92578125 C7.75523645 153.08782899 5.26161928 150.39242892 3 147 C2.319375 147.639375 1.63875 148.27875 0.9375 148.9375 C-2.60190098 151.42261133 -4.68756861 151.92564773 -9 152 C-18.29595564 149.06443506 -22.33172891 144.06245295 -26.80078125 135.81640625 C-28.06051301 132.85788314 -28.60179166 130.18098188 -29 127 C-30.051875 126.9071875 -30.051875 126.9071875 -31.125 126.8125 C-35.81690649 125.48652643 -38.81784863 123.03135505 -41.234375 118.87890625 C-44.72104916 111.38760996 -45.18140948 104.34270703 -45.1875 96.1875 C-45.19974609 95.33607422 -45.21199219 94.48464844 -45.22460938 93.60742188 C-45.25691173 79.46975935 -39.79347536 64.42531248 -30 54 C-26.70378178 51.90240659 -24.11344978 51.7830131 -20.25 51.875 C-18.77273437 51.90207031 -18.77273437 51.90207031 -17.265625 51.9296875 C-16.51796875 51.95289063 -15.7703125 51.97609375 -15 52 C-14.82984375 50.86304688 -14.6596875 49.72609375 -14.484375 48.5546875 C-11.88866082 31.77479272 -7.62908473 15.25816946 0 0 Z " fill="#FCFCFC" transform="translate(46,0)"/>
<path d="M0 0 C1.65 0 3.3 0 5 0 C3.58065203 4.43377271 1.91249966 8.70259148 0.125 13 C-7.48794046 31.82493618 -10.30863917 50.83133584 -11 71 C-9.89527344 71.13535156 -8.79054687 71.27070312 -7.65234375 71.41015625 C-4.06902279 71.988853 -2.52604673 72.47395327 0 75 C0 75.66 0 76.32 0 77 C0.99 76.34 1.98 75.68 3 75 C7.4445361 74.4129858 9.42919353 74.63775743 13.25 77.0625 C18.59610143 81.52259024 19.90080879 89.88206354 21.48046875 96.328125 C21.80704216 97.63435822 21.80704216 97.63435822 22.14021301 98.96697998 C22.595884 100.79499545 23.04869665 102.62372558 23.4987793 104.453125 C24.18923695 107.25705369 24.88981588 110.05831155 25.59179688 112.859375 C26.0344511 114.64047675 26.47652883 116.4217219 26.91796875 118.203125 C27.12729538 119.04063293 27.33662201 119.87814087 27.55229187 120.74102783 C28.32406211 123.89256407 29 126.74233868 29 130 C27.68 130.33 26.36 130.66 25 131 C22.90188226 125.21672675 21.29757463 119.39231107 19.84375 113.421875 C19.65377441 112.64307983 19.46379883 111.86428467 19.26806641 111.06188965 C18.47489259 107.79725379 17.68648354 104.53154252 16.90673828 101.26367188 C16.33060875 98.85622241 15.74412455 96.45147924 15.15625 94.046875 C14.98428101 93.31345886 14.81231201 92.58004272 14.63513184 91.82440186 C13.63608412 87.7682965 12.51400191 84.36418587 10 81 C7.15372409 79.66449153 7.15372409 79.66449153 4 80 C-1.82727989 84.20106224 -3.42667555 89.92489615 -4.6875 96.6875 C-6.4460698 115.80726954 -1.6046987 132.29696013 9.9375 147.625 C14.17530215 152.60127064 19.17854884 156.08927442 25 159 C30.44956104 159.42741655 34.21339538 158.66945258 39 156 C41.94065419 152.67990656 42.46193502 149.69616506 42.296875 145.2890625 C41.83471564 141.72557063 40.81119658 138.36865316 39.77734375 134.93359375 C38.97052655 131.88877103 38.56964587 128.93664098 38.1875 125.8125 C37.40874333 120.68069321 35.84276623 117.6007535 32.4375 113.71875 C29.10408141 109.73314081 28.5453956 106.32270483 28.6953125 101.2421875 C29.28928566 96.87115428 31.44624691 94.35326882 34.6953125 91.5234375 C39.05369351 88.36493466 42.91451859 87.14289298 48.296875 87.46484375 C58.84945207 89.55401002 66.04071123 96.20929177 73 104 C72.01 105.98 72.01 105.98 71 108 C70.56429687 107.62488281 70.12859375 107.24976562 69.6796875 106.86328125 C68.43371713 105.79260974 67.18622452 104.72370806 65.9375 103.65625 C64.74717402 102.63871327 63.55913624 101.61848329 62.375 100.59375 C55.82456096 94.99858332 51.67010258 93.40057495 43.046875 93.56640625 C40.02499898 93.99644245 38.84949728 94.30712776 36.75 96.4375 C35.88375 97.7059375 35.88375 97.7059375 35 99 C34.67 99.33 34.34 99.66 34 100 C33.68747282 106.20977921 35.33021258 110.38430602 39.2734375 115.09375 C40.12808594 116.03734375 40.12808594 116.03734375 41 117 C41.52851562 117.6084375 42.05703125 118.216875 42.6015625 118.84375 C52.0493818 129.05276802 65.37400375 134.17742922 79.078125 135.23828125 C86.3010821 135.40729133 92.85951348 135.17223076 99 131 C102.88954518 126.61542179 103.517794 121.62242885 103.2578125 115.9375 C101.77748451 99.0707326 99.36720428 82.39866468 92 67 C91.52691406 67.3609375 91.05382812 67.721875 90.56640625 68.09375 C86.08884702 71.23589682 82.68963279 72.76435652 77.171875 72.421875 C71.29551021 71.28042285 67.32058157 67.9193801 64 63 C61.53771247 58.70883948 61.18736943 54.8584934 62 50 C63.99562725 46.84562144 65.362304 45.37673235 69.0546875 44.52734375 C78.46043561 43.89269985 84.35540289 50.22987559 91 56 C91.1451001 55.25242432 91.2902002 54.50484863 91.43969727 53.73461914 C100.0105382 9.9789236 100.0105382 9.9789236 105 0 C106.65 0 108.3 0 110 0 C108.96078059 5.10949545 107.71216481 10.03229912 106.125 15 C102.53834126 26.42664141 100.06293025 38.1931073 97.6796875 49.921875 C97 53 97 53 96.1953125 55.515625 C94.76595082 60.10885467 94.87406999 62.44147139 97.125 66.75 C97.599375 67.5853125 98.07375 68.420625 98.5625 69.28125 C104.88140155 81.23221597 107.39489683 96.59604806 108 110 C108.07927734 111.73830078 108.07927734 111.73830078 108.16015625 113.51171875 C108.51937845 128.2085923 108.51937845 128.2085923 103.3828125 133.7421875 C98.39824662 138.2133217 94.50819138 140.18424839 87.75 140.625 C86.67234375 140.69976562 85.5946875 140.77453125 84.484375 140.8515625 C83.66453125 140.90054688 82.8446875 140.94953125 82 141 C82.34929669 142.83840364 82.73105454 144.67064408 83.125 146.5 C83.43824219 148.03140625 83.43824219 148.03140625 83.7578125 149.59375 C87.20582527 159.04867811 94.0305468 163.41591664 102.3671875 168.33398438 C108.67673937 172.25886555 113.65688039 177.11308506 115.68139648 184.47924805 C116.53799725 189.44270348 115.96013578 192.79851696 113 197 C108.25633365 201.77016728 104.20132465 204.22976274 97.41625977 204.38061523 C84.29361101 204.34558902 76.88118618 200.12809506 67.2421875 191.41015625 C66 190 66 190 66 188 C65.34 188 64.68 188 64 188 C62.51651695 186.03022997 61.18615512 184.0816563 59.875 182 C59.48046631 181.3822168 59.08593262 180.76443359 58.67944336 180.12792969 C55.25948216 174.65544533 52.34031511 168.97776096 49.56396484 163.15625 C48.24418228 160.39952402 47.17919083 158.17919083 45 156 C44.46375 156.763125 43.9275 157.52625 43.375 158.3125 C40.02283471 162.10573967 37.35002722 163.66040069 32.296875 164.390625 C23.0783036 164.91064698 17.44602018 161.96113543 10.671875 155.92578125 C7.75523645 153.08782899 5.26161928 150.39242892 3 147 C2.319375 147.639375 1.63875 148.27875 0.9375 148.9375 C-2.60190098 151.42261133 -4.68756861 151.92564773 -9 152 C-18.29595564 149.06443506 -22.33172891 144.06245295 -26.80078125 135.81640625 C-28.06051301 132.85788314 -28.60179166 130.18098188 -29 127 C-30.051875 126.9071875 -30.051875 126.9071875 -31.125 126.8125 C-35.81690649 125.48652643 -38.81784863 123.03135505 -41.234375 118.87890625 C-44.72104916 111.38760996 -45.18140948 104.34270703 -45.1875 96.1875 C-45.19974609 95.33607422 -45.21199219 94.48464844 -45.22460938 93.60742188 C-45.25691173 79.46975935 -39.79347536 64.42531248 -30 54 C-26.70378178 51.90240659 -24.11344978 51.7830131 -20.25 51.875 C-18.77273437 51.90207031 -18.77273437 51.90207031 -17.265625 51.9296875 C-16.51796875 51.95289063 -15.7703125 51.97609375 -15 52 C-14.82984375 50.86304688 -14.6596875 49.72609375 -14.484375 48.5546875 C-11.92127064 31.98559768 -7.95482343 14.92476395 0 0 Z " fill="#191714" transform="translate(46,0)"/>
<path d="M0 0 C0.65484375 0.44730469 1.3096875 0.89460938 1.984375 1.35546875 C12.12060152 8.07000299 21.90135576 12.40431267 34 14 C34.18175781 14.79664063 34.36351562 15.59328125 34.55078125 16.4140625 C37.58325242 29.19709482 41.6907547 36.53842936 52.9375 43.5 C53.86175781 44.06823486 53.86175781 44.06823486 54.8046875 44.64794922 C59.9583528 47.85384839 65.21758482 51.43516963 68 57 C68.52954417 61.41865547 68.58712449 64.91969093 66.4375 68.875 C60.81109334 73.78007248 55.446695 74.68300435 48.12109375 74.47265625 C37.7436314 72.90110063 28.61027448 64.92836738 22.5 56.75 C11.15048525 40.78751254 0.64098731 19.87060659 0 0 Z " fill="#FAFAFA" transform="translate(89,126)"/>
<path d="M0 0 C1.16402344 0.13148437 1.16402344 0.13148437 2.3515625 0.265625 C4.375 0.75 4.375 0.75 6.375 2.75 C5.78900303 6.94354084 3.8201171 10.96311346 2.3125 14.8984375 C-2.79381054 30.43013205 0.71230366 47.61938262 7.609375 61.98828125 C8.66759988 64.4232783 8.98572203 66.15443136 8.375 68.75 C6.8125 70.625 6.8125 70.625 4.375 71.75 C-0.99945414 71.8514048 -4.17968333 70.24789715 -7.98828125 66.6875 C-15.72891705 57.52436073 -16.97861143 46.49391506 -16.94067383 34.95385742 C-16.93752425 32.95290685 -16.96182049 30.95197484 -16.98632812 28.95117188 C-16.99070758 20.18788705 -16.78065701 11.43127139 -11.1875 4.25 C-7.50916206 0.66137762 -5.14617742 -0.65402924 0 0 Z " fill="#FAFAFA" transform="translate(36.625,75.25)"/>
<path d="M0 0 C2.9375 0.5 2.9375 0.5 4.58984375 2.22265625 C6.90789226 6.13982229 6.70296284 10.09497799 5.9375 14.5 C3.8125 17.0625 3.8125 17.0625 0.9375 19.5 C-10.42026711 32.61822101 -8.45236471 50.27762963 -8.0625 66.5 C-12.43679944 64.46353074 -14.94775305 62.10819885 -16.89038086 57.56298828 C-18.80008434 52.09882549 -19.61038502 47.21764618 -19.5625 41.4375 C-19.55677979 40.61894531 -19.55105957 39.80039063 -19.54516602 38.95703125 C-19.1500332 25.20587723 -14.25875809 12.55758628 -5.0390625 2.234375 C-3.0625 0.5 -3.0625 0.5 0 0 Z " fill="#F5F5F5" transform="translate(24.0625,55.5)"/>
<path d="M0 0 C6.69969949 0.85075549 11.70534904 4.76521699 16 9.875 C16.639375 10.74125 17.27875 11.6075 17.9375 12.5 C16.94206145 15.124338 15.96557645 16.47605244 13.8125 18.3125 C9.98265512 19.89439245 6.80785999 19.78750312 2.9375 18.5 C-0.58255358 15.68395714 -3.16427072 12.59617898 -5.0625 8.5 C-5.375 5.3125 -5.375 5.3125 -5.0625 2.5 C-3.0625 0.5 -3.0625 0.5 0 0 Z " fill="#F3F3F4" transform="translate(117.0625,48.5)"/>
<path d="M0 0 C1.15628906 -0.00515625 2.31257813 -0.0103125 3.50390625 -0.015625 C6.4375 0.25 6.4375 0.25 8.4375 2.25 C7.49648437 2.18039063 6.55546875 2.11078125 5.5859375 2.0390625 C-1.31334838 1.53407596 -1.31334838 1.53407596 -7.79296875 3.41015625 C-10.7658157 6.28023812 -12.32024129 9.13160199 -12.5625 13.25 C-12.8925 13.25 -13.2225 13.25 -13.5625 13.25 C-13.91348791 9.47687995 -13.86890454 7.71488965 -11.75 4.5 C-7.83457553 0.47270626 -5.48839159 -0.02452912 0 0 Z " fill="#C5C4C6" transform="translate(92.5625,92.75)"/>
<path d="M0 0 C2.31 0 4.62 0 7 0 C7 0.66 7 1.32 7 2 C4.36 2.66 1.72 3.32 -1 4 C-0.67 2.68 -0.34 1.36 0 0 Z " fill="#030303" transform="translate(114,46)"/>
<path d="M0 0 C-1.39332574 3.36720387 -2.9789286 4.9859524 -6 7 C-5.37162381 3.35541809 -4.14650034 0 0 0 Z " fill="#272628" transform="translate(83,91)"/>
<path d="M0 0 C0.99 0.33 1.98 0.66 3 1 C-0.465 3.97 -0.465 3.97 -4 7 C-2.92598892 4.08482708 -2.22189824 2.22189824 0 0 Z " fill="#212022" transform="translate(25,74)"/>
</g>
</svg>