<svg xmlns:xlink="http://www.w3.org/1999/xlink" xmlns="http://www.w3.org/2000/svg" fill="none" height="100" viewBox="0 0 158 100" width="158">
<rect fill="white" height="100" width="158"/>
<path d="M1.30533 63.2488V61.1225C1.95283 61.1225 2.47783 61.0787 2.88033 60.9912C3.28283 60.9037 3.58908 60.7462 3.79908 60.5187C4.02658 60.2912 4.18408 59.9675 4.27158 59.5475C4.35908 59.11 4.40283 58.5587 4.40283 57.8937V41.4875H7.34283V57.9462C7.34283 59.1712 7.21158 60.1775 6.94908 60.965C6.68658 61.735 6.22283 62.3125 5.55783 62.6975C4.89283 63.065 3.94783 63.2488 2.72283 63.2488H1.30533ZM10.6708 62.75V41.4875H18.9133V43.6925H13.6371V50.7275H17.9158V52.8275H13.6371V60.6237H18.9658V62.75H10.6708ZM21.3605 62.75V41.4875H23.3818L29.4193 55.61V41.4875H31.8868V62.75H29.9968L23.8805 48.2337V62.75H21.3605ZM35.2289 62.75V41.4875H37.2502L43.2877 55.61V41.4875H45.7552V62.75H43.8652L37.7489 48.2337V62.75H35.2289ZM47.9424 62.75L52.4574 41.4875H55.3186L59.8599 62.75H57.0511L56.0799 57.395H51.7486L50.7249 62.75H47.9424ZM52.1424 55.2687H55.6861L53.9011 45.6875L52.1424 55.2687ZM68.0158 62.75V41.4875H70.9821V51.515L75.8646 41.4875H78.6208L74.4208 50.8587L79.3033 62.75H76.4158L72.3471 52.775L70.9821 55.2425V62.75H68.0158ZM86.3963 62.9863C84.8563 62.9863 83.6751 62.68 82.8526 62.0675C82.0301 61.455 81.4701 60.5975 81.1726 59.495C80.8751 58.375 80.7263 57.0712 80.7263 55.5837V41.4875H83.5613V55.715C83.5613 56.625 83.6226 57.4562 83.7451 58.2087C83.8676 58.9612 84.1301 59.5562 84.5326 59.9937C84.9526 60.4312 85.5738 60.65 86.3963 60.65C87.2363 60.65 87.8576 60.4312 88.2601 59.9937C88.6626 59.5562 88.9251 58.9612 89.0476 58.2087C89.1701 57.4562 89.2313 56.625 89.2313 55.715V41.4875H92.0401V55.5837C92.0401 57.0712 91.8913 58.375 91.5938 59.495C91.2963 60.5975 90.7363 61.455 89.9138 62.0675C89.1088 62.68 87.9363 62.9863 86.3963 62.9863ZM97.4993 62.75V43.6925H93.903V41.4875H103.957V43.6925H100.466V62.75H97.4993ZM111.335 62.9863C109.83 62.9863 108.658 62.6713 107.818 62.0412C106.995 61.4112 106.418 60.5625 106.085 59.495C105.77 58.4275 105.613 57.2375 105.613 55.925V48.4175C105.613 46.9825 105.77 45.7312 106.085 44.6637C106.418 43.5962 106.995 42.7737 107.818 42.1962C108.658 41.6012 109.83 41.3037 111.335 41.3037C112.665 41.3037 113.715 41.5487 114.485 42.0387C115.273 42.5287 115.833 43.2287 116.165 44.1387C116.515 45.0487 116.69 46.1425 116.69 47.42V49.1H113.882V47.6037C113.882 46.8162 113.838 46.125 113.75 45.53C113.68 44.9175 113.47 44.445 113.12 44.1125C112.77 43.78 112.184 43.6137 111.362 43.6137C110.522 43.6137 109.909 43.7975 109.524 44.165C109.139 44.515 108.885 45.0225 108.763 45.6875C108.658 46.335 108.605 47.0962 108.605 47.9712V56.3975C108.605 57.465 108.693 58.3137 108.868 58.9437C109.043 59.5562 109.332 59.9937 109.734 60.2562C110.137 60.5187 110.679 60.65 111.362 60.65C112.167 60.65 112.744 60.475 113.094 60.125C113.444 59.7575 113.663 59.2587 113.75 58.6287C113.838 57.9987 113.882 57.2637 113.882 56.4237V54.8487H116.69V56.4237C116.69 57.7187 116.533 58.865 116.218 59.8625C115.903 60.8425 115.36 61.6125 114.59 62.1725C113.82 62.715 112.735 62.9863 111.335 62.9863ZM119.516 62.75V41.4875H122.482V50.675H127.942V41.4875H130.909V62.75H127.942V52.8012H122.482V62.75H119.516ZM134.23 62.75V41.4875H142.473V43.6925H137.197V50.7275H141.475V52.8275H137.197V60.6237H142.525V62.75H134.23ZM144.92 62.75V41.4875H149.199C150.616 41.4875 151.789 41.68 152.716 42.065C153.644 42.4325 154.326 43.0362 154.764 43.8762C155.219 44.6987 155.446 45.7837 155.446 47.1312C155.446 47.9537 155.359 48.7062 155.184 49.3887C155.009 50.0537 154.729 50.6225 154.344 51.095C153.959 51.55 153.451 51.8825 152.821 52.0925L155.84 62.75H152.979L150.196 52.775H147.886V62.75H144.92ZM147.886 50.6487H149.015C149.855 50.6487 150.538 50.5437 151.063 50.3337C151.588 50.1237 151.973 49.765 152.218 49.2575C152.463 48.75 152.585 48.0412 152.585 47.1312C152.585 45.8887 152.358 44.9962 151.903 44.4537C151.448 43.8937 150.546 43.6137 149.199 43.6137H147.886V50.6487Z" fill="black"/>
</svg>