<svg xmlns:xlink="http://www.w3.org/1999/xlink" xmlns="http://www.w3.org/2000/svg" fill="none" height="100" viewBox="0 0 112 100" width="112">
<g clip-path="url(#clip0_1937_4090)">
<rect fill="white" height="100" width="112"/>
<path d="M12.3544 69.9842C9.0173 69.8514 6.28702 68.9363 4.15217 67.2367C3.74474 66.912 2.77388 65.9386 2.44817 65.528C1.58246 64.4371 0.993885 63.3755 0.601313 62.1975C-0.606685 58.5716 0.0150284 53.8136 2.3796 48.5917C4.40416 44.1212 7.52816 39.6873 12.9784 33.5463C13.7813 32.6427 16.1721 30 16.1876 30C16.1933 30 16.063 30.2262 15.899 30.5016C14.4819 32.8803 13.2693 35.6822 12.6087 38.1079C11.5476 42.0001 11.6756 45.3403 12.9836 47.9303C13.8859 49.7147 15.4327 51.2602 17.1721 52.1146C20.2173 53.6097 24.6756 53.7334 30.1201 52.4765C30.495 52.3894 49.0698 47.4482 71.3978 41.4956C93.7257 35.5425 111.997 30.6757 112 30.6797C112.006 30.6849 60.1258 52.9317 33.1938 64.4732C28.9287 66.3005 27.7881 66.762 25.783 67.4675C20.6573 69.2713 16.0659 70.132 12.3544 69.9842Z" fill="black"/>
</g>
<defs>
<clipPath id="clip0_1937_4090">
<rect fill="white" height="100" width="112"/>
</clipPath>
</defs>
</svg>